<?xml version="1.0" encoding="UTF-8"?>
<svg width="65px" height="67px" viewBox="0 0 65 67" version="1.1" xmlns="http://www.w3.org/2000/svg" xmlns:xlink="http://www.w3.org/1999/xlink">
    <!-- Generator: Sketch 46 (44423) - http://www.bohemiancoding.com/sketch -->
    <title>totem</title>
    <desc>Created with Sketch.</desc>
    <defs></defs>
    <g id="Page-1" stroke="none" stroke-width="1" fill="none" fill-rule="evenodd">
        <g id="Mask" transform="translate(1.000000, 1.000000)" stroke="#405263">
            <path d="M7.00047417,0 C7.32923047,1.49165638 7.64534229,2.99198031 7.94928381,4.4967778 L28.6299516,11.5576109 L29.9655241,25.42666 L28.2948731,25.3690628 C27.9313445,25.3564809 27.5684481,25.3405438 27.2052356,25.3264241 C27.1905364,27.4701035 26.5240146,29.4314848 25.3544009,30.9343251 C24.1721426,32.4542209 22.3755211,33.5463315 20.2945569,33.5463315 C18.2137509,33.5463315 16.4171293,32.4542209 15.234713,30.9344649 C14.0524548,29.4148487 13.3822977,27.4263463 13.3822977,25.2544275 C13.3822977,24.8245453 13.4096414,24.402352 13.4608515,23.9892457 C12.5781093,23.8267991 11.6963153,23.6474369 10.8156278,23.4436098 C11.3340512,29.1869762 11.4652376,34.8439467 11.0448089,40.2674527 C12.8640324,39.8726601 14.7938951,39.3382081 16.7009977,38.6928955 C22.5514373,36.7129208 28.1611578,33.5418579 29.8141065,31.0085584 L31.0475748,29.1179154 L32.3480589,30.9730495 C34.9427047,34.6735316 40.3746123,37.7493914 45.9705818,39.5446914 C48.0814186,40.222018 50.2233923,40.7047443 52.2158451,41 C51.5551714,35.4485778 51.3560209,29.5616378 51.6003754,23.634156 C50.7358095,23.849866 49.8712437,24.0461439 49.0066779,24.2271838 C49.0405018,24.5643792 49.0594685,24.9066074 49.0594685,25.2544275 C49.0594685,27.4263463 48.3901017,29.4148487 47.2076855,30.9344649 C46.0254272,32.4543607 44.2283315,33.5464713 42.1476835,33.5464713 C40.0668774,33.5464713 38.2700978,32.4543607 37.0876815,30.9346047 C35.978129,29.5086539 35.3203003,27.6702958 35.243169,25.6543928 C34.9389114,25.6539734 34.6346538,25.6524356 34.3303961,25.6476824 L32.7507853,25.6230778 L34.1092759,11.5056056 L53.9168428,4.68061362 C54.2460733,3.09696943 54.6054924,1.53345631 55,0.000139799098 C41.7723007,5.97333588 20.2174257,6.26929057 7,0.000139799098 L7.00047417,0 Z" id="Path"></path>
            <path d="M63,2 L37.868758,10.3231703 L37,19 C45.2706941,18.9229429 53.5440454,17.1681997 61.8699503,13.6172984 L63,2 Z" id="Path"></path>
            <path d="M0,2 L1.13292414,13.7454498 C9.18749707,17.7477095 17.3354144,18.6500799 26,19 L25.1390386,10.3264773 L0,2 Z" id="Path"></path>
            <path d="M30.3338475,33 C27.5177502,35.9472555 22.5529854,38.3414897 17.4298993,40.094915 C14.4334322,41.1204284 11.3868963,41.8862766 8.66603678,42.2730354 C6.95420731,42.5164031 5.40161779,42.606656 4,42.4944904 L4.17087672,43.3263506 L11.7252812,54.7913388 L16.1847654,41.1641168 L23.4955634,56.4115076 L30.284085,38.6197808 L38.0188593,57 L45,41.319286 C44.5957755,41.2001358 44.191551,41.0766031 43.7864078,40.9454009 C38.6470916,39.2778459 33.5628968,36.6275073 30.3336943,33 L30.3338475,33 Z" id="Path"></path>
            <path d="M46,41.0001472 L50.3194346,56 L57,42.5507699 C53.8563683,42.9025819 49.9700934,42.2961109 46,41 L46,41.0001472 Z" id="Path"></path>
            <path d="M31.695917,48 L25.0916535,63.963432 L17.9994136,50.3209795 L13.9281038,61.7946293 L7,52.0961651 L8.79571658,60.1648122 C22.6057705,65.9011328 36.2260133,66.497232 50,62.145884 L45.9317468,50.5428777 L39.2091952,64.4682504 L31.695917,48.0002522 L31.695917,48 Z" id="Path"></path>
            <path d="M59,50 L52,61 C53.7200088,60.4595216 55.4424204,59.8547134 57.1675779,59.1842295 L59,50 L59,50 Z" id="Path"></path>
        </g>
    </g>
</svg>