<?xml version="1.0" encoding="UTF-8"?>
<svg width="198px" height="33px" viewBox="0 0 198 33" version="1.1" xmlns="http://www.w3.org/2000/svg" xmlns:xlink="http://www.w3.org/1999/xlink">
    <!-- Generator: Sketch 46 (44423) - http://www.bohemiancoding.com/sketch -->
    <title>totem</title>
    <desc>Created with Sketch.</desc>
    <defs></defs>
    <g id="Page-1" stroke="none" stroke-width="1" fill="none" fill-rule="evenodd">
        <g id="Mask" transform="translate(1.000000, 2.000000)" stroke="#405263">
            <path d="M4.00021733,0 C4.1508973,0.691255396 4.29578188,1.38652746 4.43508841,2.08387264 L13.9137278,5.35596601 L14.5258652,11.7830864 L13.7601502,11.756395 C13.5935329,11.7505643 13.4272054,11.7431788 13.260733,11.7366355 C13.2539959,12.7300479 12.9485067,13.6389808 12.4124337,14.335419 C11.8705654,15.0397609 11.0471138,15.5458609 10.0933386,15.5458609 C9.13963581,15.5458609 8.31618427,15.0397609 7.77424347,14.3354837 C7.23237512,13.6312714 6.9252198,12.7097703 6.9252198,11.7032713 C6.9252198,11.5040576 6.93775231,11.308407 6.96122362,11.1169675 C6.55663341,11.0416874 6.15247786,10.9585683 5.7488294,10.8641119 C5.98644012,13.5256719 6.04656722,16.1471948 5.85387072,18.6605269 C6.68768152,18.4775742 7.57220192,18.2299013 8.44629063,17.930854 C11.1277421,17.0133048 13.698864,15.5437878 14.4564655,14.3698198 L15.0218051,13.4936681 L15.6178603,14.3533644 C16.807073,16.068222 19.2966973,17.4936204 21.8615167,18.3255887 C22.8289835,18.6394718 23.8107215,18.8631742 24.723929,19 C24.4211202,16.4273897 24.3298429,13.6992955 24.4418387,10.9524138 C24.0455794,11.0523769 23.64932,11.143335 23.2530607,11.2272315 C23.2685633,11.3834928 23.2772564,11.5420863 23.2772564,11.7032713 C23.2772564,12.7097703 22.9704633,13.6312714 22.4285225,14.3354837 C21.8866542,15.0398257 21.0629853,15.5459257 20.1093549,15.5459257 C19.1556521,15.5459257 18.3321282,15.0398257 17.7901874,14.3355485 C17.2816425,13.6747421 16.9801376,12.82282 16.9447858,11.888621 C16.8053344,11.8884267 16.665883,11.887714 16.5264316,11.8855114 L15.8024433,11.8741092 L16.4250848,5.33186601 L25.503553,2.16906485 C25.6544503,1.43518095 25.819184,0.710626095 26,6.47849481e-05 C19.9373045,2.76813126 10.0579868,2.905281 4,6.47849481e-05 L4.00021733,0 Z" id="Path"></path>
            <path d="M29,1 L17.4009652,4.91678601 L17,9 C20.8172434,8.96373784 24.6357133,8.13797635 28.4784386,6.46696393 L29,1 Z" id="Path"></path>
            <path d="M0,1 L0.522888066,6.52727049 C4.24038326,8.41068684 8.0009605,8.83533173 12,9 L11.6026332,4.91834225 L0,1 Z" id="Path"></path>
            <path d="M13.5612013,15 C12.3248659,16.3508254 10.1452131,17.4481828 7.89605336,18.251836 C6.5805312,18.721863 5.24302765,19.0728768 4.04850395,19.2501412 C3.29696906,19.3616848 2.6153444,19.4030507 2,19.3516415 L2.07501905,19.7329107 L5.39158687,24.9876969 L7.3494092,18.7418869 L10.5590278,25.7302743 L13.5393544,17.5757328 L16.935109,26 L20,18.8130061 C19.8225356,18.7583956 19.6450712,18.7017764 19.4672034,18.6416421 C17.2109182,17.8773461 14.9788327,16.6626075 13.5611341,15 L13.5612013,15 Z" id="Path"></path>
            <path d="M21,19.0000687 L22.9633794,26 L26,19.7236926 C24.5710765,19.8878716 22.8045879,19.6048518 21,19 L21,19.0000687 Z" id="Path"></path>
            <path d="M15.486473,22 L12.4147226,29.5122033 L9.11600631,23.0922256 L7.22237386,28.4915902 L4,23.9276071 L4.83521701,27.7246175 C11.2584979,30.4240625 17.5934945,30.7045798 24,28.6568866 L22.1077892,23.1966483 L18.981021,29.7497649 L15.486473,22.0001187 L15.486473,22 Z" id="Path"></path>
            <path d="M28,23 L24,28 C24.9828622,27.754328 25.9670974,27.4794152 26.9529017,27.1746498 L28,23 L28,23 Z" id="Path"></path>
        </g>
        <path d="M42.394,22.951 L49.414,22.951 L49.414,26.461 L38,26.461 L38,7.52 L42.394,7.52 L42.394,22.951 Z M60.802,26.461 C60.4206648,26.461 60.132501,26.4090005 59.9375,26.305 C59.742499,26.2009995 59.5800007,25.984335 59.45,25.655 L59.164,24.914 C58.8259983,25.2000014 58.5010016,25.4513323 58.189,25.668 C57.8769984,25.8846678 57.5541683,26.0688326 57.2205,26.2205 C56.8868317,26.3721674 56.5315019,26.484833 56.1545,26.5585 C55.7774981,26.632167 55.3593356,26.669 54.9,26.669 C54.2846636,26.669 53.7256692,26.5888341 53.223,26.4285 C52.7203308,26.2681659 52.2935018,26.0320016 51.9425,25.72 C51.5914982,25.4079984 51.3206676,25.020169 51.13,24.5565 C50.9393324,24.092831 50.844,23.5576697 50.844,22.951 C50.844,22.474331 50.9653321,21.9846692 51.208,21.482 C51.4506679,20.9793308 51.870997,20.5221687 52.469,20.1105 C53.067003,19.6988313 53.8729949,19.3543347 54.887,19.077 C55.9010051,18.7996653 57.1793256,18.6436668 58.722,18.609 L58.722,18.037 C58.722,17.2483294 58.5595016,16.6785018 58.2345,16.3275 C57.9094984,15.9764982 57.448003,15.801 56.85,15.801 C56.3733309,15.801 55.9833348,15.8529995 55.68,15.957 C55.3766652,16.0610005 55.1058345,16.1779994 54.8675,16.308 C54.6291655,16.4380006 54.3973345,16.5549995 54.172,16.659 C53.9466655,16.7630005 53.6780016,16.815 53.366,16.815 C53.0886653,16.815 52.852501,16.747834 52.6575,16.6135 C52.462499,16.479166 52.3086672,16.3123343 52.196,16.113 L51.468,14.852 C52.2826707,14.1326631 53.1861617,13.5975018 54.1785,13.2465 C55.1708383,12.8954982 56.234661,12.72 57.37,12.72 C58.1846707,12.72 58.9191634,12.8521653 59.5735,13.1165 C60.2278366,13.3808347 60.7824977,13.7491643 61.2375,14.2215 C61.6925023,14.6938357 62.0413321,15.2549968 62.284,15.905 C62.5266679,16.5550033 62.648,17.2656628 62.648,18.037 L62.648,26.461 L60.802,26.461 Z M56.174,24.004 C56.6940026,24.004 57.1489981,23.9130009 57.539,23.731 C57.9290019,23.5489991 58.3233313,23.2543354 58.722,22.847 L58.722,20.975 C57.915996,21.0096668 57.2530026,21.0789995 56.733,21.183 C56.2129974,21.2870005 55.8013349,21.4169992 55.498,21.573 C55.1946651,21.7290008 54.9845006,21.9066657 54.8675,22.106 C54.7504994,22.3053343 54.692,22.5219988 54.692,22.756 C54.692,23.2153356 54.8176654,23.5381657 55.069,23.7245 C55.3203346,23.9108343 55.6886642,24.004 56.174,24.004 Z M65.508,26.461 L65.508,12.98 L67.9,12.98 C68.0993343,12.98 68.266166,12.9973332 68.4005,13.032 C68.534834,13.0666668 68.6474995,13.120833 68.7385,13.1945 C68.8295005,13.268167 68.8988331,13.3656661 68.9465,13.487 C68.9941669,13.6083339 69.0353332,13.7556658 69.07,13.929 L69.291,15.19 C69.7850025,14.4273295 70.3396636,13.8250022 70.955,13.383 C71.5703364,12.9409978 72.2419964,12.72 72.97,12.72 C73.5853364,12.72 74.0793315,12.8673319 74.452,13.162 L73.932,16.126 C73.8973332,16.3080009 73.8280005,16.435833 73.724,16.5095 C73.6199995,16.583167 73.4813342,16.62 73.308,16.62 C73.1606659,16.62 72.9873343,16.6005002 72.788,16.5615 C72.5886657,16.5224998 72.3373349,16.503 72.034,16.503 C70.9766614,16.503 70.1446697,17.0663277 69.538,18.193 L69.538,26.461 L65.508,26.461 Z M85.294,26.461 C84.9126648,26.461 84.624501,26.4090005 84.4295,26.305 C84.234499,26.2009995 84.0720007,25.984335 83.942,25.655 L83.656,24.914 C83.3179983,25.2000014 82.9930016,25.4513323 82.681,25.668 C82.3689984,25.8846678 82.0461683,26.0688326 81.7125,26.2205 C81.3788317,26.3721674 81.0235019,26.484833 80.6465,26.5585 C80.2694981,26.632167 79.8513356,26.669 79.392,26.669 C78.7766636,26.669 78.2176692,26.5888341 77.715,26.4285 C77.2123308,26.2681659 76.7855018,26.0320016 76.4345,25.72 C76.0834982,25.4079984 75.8126676,25.020169 75.622,24.5565 C75.4313324,24.092831 75.336,23.5576697 75.336,22.951 C75.336,22.474331 75.4573321,21.9846692 75.7,21.482 C75.9426679,20.9793308 76.362997,20.5221687 76.961,20.1105 C77.559003,19.6988313 78.3649949,19.3543347 79.379,19.077 C80.3930051,18.7996653 81.6713256,18.6436668 83.214,18.609 L83.214,18.037 C83.214,17.2483294 83.0515016,16.6785018 82.7265,16.3275 C82.4014984,15.9764982 81.940003,15.801 81.342,15.801 C80.865331,15.801 80.4753348,15.8529995 80.172,15.957 C79.8686651,16.0610005 79.5978345,16.1779994 79.3595,16.308 C79.1211655,16.4380006 78.8893345,16.5549995 78.664,16.659 C78.4386655,16.7630005 78.1700016,16.815 77.858,16.815 C77.5806653,16.815 77.344501,16.747834 77.1495,16.6135 C76.954499,16.479166 76.8006672,16.3123343 76.688,16.113 L75.96,14.852 C76.7746707,14.1326631 77.6781617,13.5975018 78.6705,13.2465 C79.6628383,12.8954982 80.726661,12.72 81.862,12.72 C82.6766707,12.72 83.4111634,12.8521653 84.0655,13.1165 C84.7198366,13.3808347 85.2744977,13.7491643 85.7295,14.2215 C86.1845023,14.6938357 86.5333321,15.2549968 86.776,15.905 C87.0186679,16.5550033 87.14,17.2656628 87.14,18.037 L87.14,26.461 L85.294,26.461 Z M80.666,24.004 C81.1860026,24.004 81.6409981,23.9130009 82.031,23.731 C82.421002,23.5489991 82.8153313,23.2543354 83.214,22.847 L83.214,20.975 C82.407996,21.0096668 81.7450026,21.0789995 81.225,21.183 C80.7049974,21.2870005 80.2933349,21.4169992 79.99,21.573 C79.6866652,21.7290008 79.4765006,21.9066657 79.3595,22.106 C79.2424994,22.3053343 79.184,22.5219988 79.184,22.756 C79.184,23.2153356 79.3096654,23.5381657 79.561,23.7245 C79.8123346,23.9108343 80.1806642,24.004 80.666,24.004 Z M96.942,26.461 L93.276,26.461 L88.05,12.98 L91.404,12.98 C91.6900014,12.98 91.930499,13.047166 92.1255,13.1815 C92.320501,13.315834 92.4526663,13.4826657 92.522,13.682 L94.394,19.727 C94.5413341,20.2210025 94.682166,20.7019977 94.8165,21.17 C94.950834,21.6380023 95.0656662,22.1059977 95.161,22.574 C95.2563338,22.1059977 95.3733326,21.6380023 95.512,21.17 C95.6506674,20.7019977 95.7979992,20.2210025 95.954,19.727 L97.904,13.682 C97.9733337,13.4826657 98.1033324,13.315834 98.294,13.1815 C98.4846676,13.047166 98.7099987,12.98 98.97,12.98 L102.168,12.98 L96.942,26.461 Z M109.11,12.772 C110.002671,12.772 110.819496,12.9106653 111.5605,13.188 C112.301504,13.4653347 112.938497,13.8683307 113.4715,14.397 C114.004503,14.9256693 114.420499,15.5734962 114.7195,16.3405 C115.018501,17.1075038 115.168,17.9763285 115.168,18.947 C115.168,19.2503349 115.155,19.4973324 115.129,19.688 C115.103,19.8786676 115.055334,20.0303328 114.986,20.143 C114.916666,20.2556672 114.823501,20.3336664 114.7065,20.377 C114.589499,20.4203336 114.440001,20.442 114.258,20.442 L106.484,20.442 C106.614001,21.5686723 106.956331,22.3854975 107.511,22.8925 C108.065669,23.3995025 108.780662,23.653 109.656,23.653 C110.124002,23.653 110.526998,23.5966672 110.865,23.484 C111.203002,23.3713328 111.504165,23.2456674 111.7685,23.107 C112.032835,22.9683326 112.275499,22.8426672 112.4965,22.73 C112.717501,22.6173328 112.949332,22.561 113.192,22.561 C113.512668,22.561 113.755333,22.6779988 113.92,22.912 L115.09,24.355 C114.673998,24.8316691 114.225502,25.2194985 113.7445,25.5185 C113.263498,25.8175015 112.769503,26.0514992 112.2625,26.2205 C111.755497,26.3895008 111.248503,26.5064997 110.7415,26.5715 C110.234497,26.6365003 109.751336,26.669 109.292,26.669 C108.347329,26.669 107.461171,26.5151682 106.6335,26.2075 C105.805829,25.8998318 105.08217,25.4426697 104.4625,24.836 C103.84283,24.2293303 103.353168,23.4753378 102.9935,22.574 C102.633832,21.6726622 102.454,20.624006 102.454,19.428 C102.454,18.5266622 102.607832,17.673004 102.9155,16.867 C103.223168,16.060996 103.665164,15.3546697 104.2415,14.748 C104.817836,14.1413303 105.515496,13.6603351 106.3345,13.305 C107.153504,12.9496649 108.078662,12.772 109.11,12.772 Z M109.188,15.554 C108.416663,15.554 107.814335,15.7728311 107.381,16.2105 C106.947664,16.6481689 106.661667,17.2786625 106.523,18.102 L111.554,18.102 C111.554,17.7813317 111.512834,17.4693348 111.4305,17.166 C111.348166,16.8626651 111.213834,16.5918345 111.0275,16.3535 C110.841166,16.1151655 110.596335,15.9223341 110.293,15.775 C109.989665,15.6276659 109.621336,15.554 109.188,15.554 Z M121.642,7 L121.642,26.461 L117.612,26.461 L117.612,7 L121.642,7 Z M143.092,8.066 L143.092,9.197 L136.631,9.197 L136.631,26.461 L135.305,26.461 L135.305,9.197 L128.805,9.197 L128.805,8.066 L143.092,8.066 Z M147.785,13.318 C148.712338,13.318 149.542163,13.4761651 150.2745,13.7925 C151.006837,14.1088349 151.624331,14.5573304 152.127,15.138 C152.629669,15.7186696 153.013165,16.4184959 153.2775,17.2375 C153.541835,18.0565041 153.674,18.9729949 153.674,19.987 C153.674,21.0010051 153.541835,21.9153293 153.2775,22.73 C153.013165,23.5446707 152.629669,24.2423304 152.127,24.823 C151.624331,25.4036696 151.006837,25.8499984 150.2745,26.162 C149.542163,26.4740016 148.712338,26.63 147.785,26.63 C146.857662,26.63 146.027837,26.4740016 145.2955,26.162 C144.563163,25.8499984 143.943503,25.4036696 143.4365,24.823 C142.929497,24.2423304 142.543835,23.5446707 142.2795,22.73 C142.015165,21.9153293 141.883,21.0010051 141.883,19.987 C141.883,18.9729949 142.015165,18.0565041 142.2795,17.2375 C142.543835,16.4184959 142.929497,15.7186696 143.4365,15.138 C143.943503,14.5573304 144.563163,14.1088349 145.2955,13.7925 C146.027837,13.4761651 146.857662,13.318 147.785,13.318 Z M147.785,25.655 C148.556337,25.655 149.230164,25.5228347 149.8065,25.2585 C150.382836,24.9941653 150.863831,24.6150025 151.2495,24.121 C151.635169,23.6269975 151.923332,23.0311702 152.114,22.3335 C152.304668,21.6358298 152.4,20.853671 152.4,19.987 C152.4,19.1289957 152.304668,18.3490035 152.114,17.647 C151.923332,16.9449965 151.635169,16.3448358 151.2495,15.8465 C150.863831,15.3481642 150.382836,14.964668 149.8065,14.696 C149.230164,14.427332 148.556337,14.293 147.785,14.293 C147.013663,14.293 146.339836,14.427332 145.7635,14.696 C145.187164,14.964668 144.706169,15.3481642 144.3205,15.8465 C143.934831,16.3448358 143.644501,16.9449965 143.4495,17.647 C143.254499,18.3490035 143.157,19.1289957 143.157,19.987 C143.157,20.853671 143.254499,21.6358298 143.4495,22.3335 C143.644501,23.0311702 143.934831,23.6269975 144.3205,24.121 C144.706169,24.6150025 145.187164,24.9941653 145.7635,25.2585 C146.339836,25.5228347 147.013663,25.655 147.785,25.655 Z M160.46,26.669 C159.584662,26.669 158.902169,26.4263358 158.4125,25.941 C157.922831,25.4556642 157.678,24.7060051 157.678,23.692 L157.678,14.852 L155.819,14.852 C155.723666,14.852 155.645667,14.8260003 155.585,14.774 C155.524333,14.7219997 155.494,14.6483338 155.494,14.553 L155.494,14.072 L157.704,13.916 L158.016,9.288 C158.024667,9.20999961 158.057166,9.14066697 158.1135,9.08 C158.169834,9.01933303 158.245666,8.989 158.341,8.989 L158.926,8.989 L158.926,13.929 L162.995,13.929 L162.995,14.852 L158.926,14.852 L158.926,23.627 C158.926,23.9823351 158.9715,24.2878321 159.0625,24.5435 C159.1535,24.7991679 159.279166,25.0093325 159.4395,25.174 C159.599834,25.3386675 159.788332,25.4599996 160.005,25.538 C160.221668,25.6160004 160.455665,25.655 160.707,25.655 C161.019002,25.655 161.287666,25.6095005 161.513,25.5185 C161.738334,25.4274995 161.933333,25.3278339 162.098,25.2195 C162.262667,25.1111661 162.396999,25.0115005 162.501,24.9205 C162.605001,24.8294995 162.687333,24.784 162.748,24.784 C162.817334,24.784 162.886666,24.8273329 162.956,24.914 L163.294,25.46 C162.964665,25.8240018 162.546503,26.1164989 162.0395,26.3375 C161.532497,26.5585011 161.006003,26.669 160.46,26.669 Z M171.068,13.318 C171.796004,13.318 172.46983,13.4436654 173.0895,13.695 C173.70917,13.9463346 174.246498,14.3124976 174.7015,14.7935 C175.156502,15.2745024 175.511832,15.8659965 175.7675,16.568 C176.023168,17.2700035 176.151,18.0759955 176.151,18.986 C176.151,19.1766676 176.122834,19.3066663 176.0665,19.376 C176.010166,19.4453337 175.921334,19.48 175.8,19.48 L166.453,19.48 L166.453,19.727 C166.453,20.6976715 166.565666,21.5513296 166.791,22.288 C167.016334,23.0246704 167.336998,23.6421642 167.753,24.1405 C168.169002,24.6388358 168.671664,25.0136654 169.261,25.265 C169.850336,25.5163346 170.508996,25.642 171.237,25.642 C171.887003,25.642 172.450331,25.5705007 172.927,25.4275 C173.403669,25.2844993 173.804498,25.1241676 174.1295,24.9465 C174.454502,24.7688324 174.712332,24.6085007 174.903,24.4655 C175.093668,24.3224993 175.232333,24.251 175.319,24.251 C175.431667,24.251 175.518333,24.2943329 175.579,24.381 L175.917,24.797 C175.708999,25.0570013 175.433835,25.2996655 175.0915,25.525 C174.749165,25.7503345 174.367835,25.9431659 173.9475,26.1035 C173.527165,26.2638341 173.076502,26.3916662 172.5955,26.487 C172.114498,26.5823338 171.631336,26.63 171.146,26.63 C170.261996,26.63 169.456004,26.4761682 168.728,26.1685 C167.999996,25.8608318 167.376003,25.4123363 166.856,24.823 C166.335997,24.2336637 165.935168,23.5121709 165.6535,22.6585 C165.371832,21.8048291 165.231,20.8276722 165.231,19.727 C165.231,18.799662 165.363165,17.9438373 165.6275,17.1595 C165.891835,16.3751627 166.273164,15.6991695 166.7715,15.1315 C167.269836,14.5638305 167.88083,14.1196683 168.6045,13.799 C169.32817,13.4783317 170.149329,13.318 171.068,13.318 Z M171.081,14.241 C170.413663,14.241 169.815669,14.344999 169.287,14.553 C168.758331,14.761001 168.301169,15.0599981 167.9155,15.45 C167.529831,15.840002 167.217835,16.3079973 166.9795,16.854 C166.741165,17.4000027 166.583,18.0109966 166.505,18.687 L175.033,18.687 C175.033,17.9936632 174.937668,17.3718361 174.747,16.8215 C174.556332,16.2711639 174.287668,15.8053352 173.941,15.424 C173.594332,15.0426648 173.178336,14.7501677 172.693,14.5465 C172.207664,14.3428323 171.670336,14.241 171.081,14.241 Z M179.479,26.461 L179.479,13.526 L180.155,13.526 C180.380334,13.526 180.510333,13.6343323 180.545,13.851 L180.662,15.723 C180.913335,15.3676649 181.181999,15.0426681 181.468,14.748 C181.754001,14.4533319 182.059498,14.1998344 182.3845,13.9875 C182.709502,13.7751656 183.056165,13.6105006 183.4245,13.4935 C183.792835,13.3764994 184.180665,13.318 184.588,13.318 C185.532671,13.318 186.286664,13.5931639 186.85,14.1435 C187.413336,14.6938361 187.794666,15.4586618 187.994,16.438 C188.150001,15.900664 188.368832,15.437002 188.6505,15.047 C188.932168,14.6569981 189.254998,14.3341679 189.619,14.0785 C189.983002,13.8228321 190.379498,13.6321673 190.8085,13.5065 C191.237502,13.3808327 191.677331,13.318 192.128,13.318 C192.769337,13.318 193.345664,13.4241656 193.857,13.6365 C194.368336,13.8488344 194.803832,14.1629979 195.1635,14.579 C195.523168,14.9950021 195.798332,15.5063303 195.989,16.113 C196.179668,16.7196697 196.275,17.4129961 196.275,18.193 L196.275,26.461 L195.027,26.461 L195.027,18.193 C195.027,16.9276603 194.754003,15.9635033 194.208,15.3005 C193.661997,14.6374967 192.882005,14.306 191.868,14.306 C191.417331,14.306 190.986169,14.3883325 190.5745,14.553 C190.162831,14.7176675 189.798835,14.9624984 189.4825,15.2875 C189.166165,15.6125016 188.914834,16.0176642 188.7285,16.503 C188.542166,16.9883358 188.449,17.5516635 188.449,18.193 L188.449,26.461 L187.214,26.461 L187.214,18.193 C187.214,16.9363271 186.962669,15.9743367 186.46,15.307 C185.957331,14.6396633 185.225005,14.306 184.263,14.306 C183.560996,14.306 182.911003,14.5161646 182.313,14.9365 C181.714997,15.3568354 181.182002,15.9396629 180.714,16.685 L180.714,26.461 L179.479,26.461 Z" id="Laravel-Totem" fill="#405263"></path>
    </g>
</svg>