<svg viewBox="-50 -82.8617106314948 100 120.35892356349035" xmlns="http://www.w3.org/2000/svg" xmlns:xlink="http://www.w3.org/1999/xlink" version="1.1">
<g transform="translate(-51.798561151079134 0) scale(0.5684341415756284)" fill="#232323"><g><path d="M20.355-3.234L20.355-1.688L20.355-1.688Q20.355-1.371 20.250-1.090L20.250-1.090L20.250-1.090Q20.109-0.457 19.441-0.246L19.441-0.246L19.441-0.246Q19.125-0.141 18.809-0.141L18.809-0.141L18.809-0.141Q18.563-0.141 18.281-0.211L18.281-0.211L18.281-0.176L17.402-0.176L17.402-0.176Q17.121-0.070 16.875-0.070L16.875-0.070L16.875-0.070Q16.594-0.070 16.348-0.176L16.348-0.176L15.188-0.176L15.188-0.176Q13.852 0 12.691 0L12.691 0L12.691 0Q11.531 0 10.512-0.176L10.512-0.176L10.020-0.176L10.090-0.246L9.633-0.246L9.598-0.211L9.668-0.176L8.789-0.176L8.859-0.246L8.719-0.246L8.754-0.176L7.910-0.176L7.840-0.246L7.840-0.246Q7.594-0.211 7.066-0.176L7.066-0.176L6.609-0.105L6.152-0.070L6.152-0.070Q5.836-0.035 5.555-0.035L5.555-0.035L5.555-0.035Q4.852-0.035 4.465-0.246L4.465-0.246L4.465-0.246Q3.762-0.457 3.516-1.125L3.516-1.125L3.516-1.125Q3.270-1.477 3.270-2.320L3.270-2.320L3.270-2.531L3.270-2.531Q3.270-2.848 3.340-3.340L3.340-3.340L3.375-3.691L3.410-4.008L3.410-5.906L3.516-5.801L3.516-5.836L3.516-5.836Q3.516-6.082 3.410-6.328L3.410-6.328L3.410-6.398L3.410-6.398Q3.164-7.242 3.164-8.895L3.164-8.895L3.164-8.895Q3.164-10.617 3.410-11.391L3.410-11.391L3.410-12.094L3.480-12.094L3.480-12.270L3.410-12.340L3.410-12.410L3.410-12.410Q3.340-12.691 3.340-12.938L3.340-12.938L3.340-12.938Q3.340-13.184 3.410-13.430L3.410-13.430L3.410-14.344L3.480-14.273L3.410-14.625L3.410-14.625Q3.340-15.117 3.340-15.645L3.340-15.645L3.340-15.645Q3.340-16.137 3.410-16.664L3.410-16.664L3.410-17.367L3.410-17.367Q3.340-17.789 3.340-18.105L3.340-18.105L3.340-18.105Q3.340-18.387 3.410-18.563L3.410-18.563L3.410-20.355L3.410-20.355Q3.375-20.848 3.375-21.199L3.375-21.199L3.375-21.199Q3.375-21.551 3.410-21.762L3.410-21.762L3.410-22.570L3.410-22.570Q3.375-22.887 3.375-23.168L3.375-23.168L3.375-23.168Q3.375-23.484 3.410-23.766L3.410-23.766L3.410-24.961L3.410-24.961Q3.375-26.297 3.375-27.316L3.375-27.316L3.375-27.316Q3.375-28.371 3.410-29.109L3.410-29.109L3.410-29.602L3.375-30.234L3.305-30.902L3.234-32.273L3.234-32.730L3.234-32.730Q3.234-34.031 3.410-34.910L3.410-34.910L3.410-36.633L3.305-37.688L3.305-37.898L3.305-37.898Q3.305-38.602 3.516-39.023L3.516-39.023L3.516-39.023Q3.727-39.691 4.359-39.938L4.359-39.938L4.359-39.938Q4.746-40.148 5.414-40.148L5.414-40.148L5.414-40.148Q5.977-40.113 6.504-39.973L6.504-39.973L6.469-40.043L6.996-40.043L6.996-40.043Q6.926-40.008 6.855-39.938L6.855-39.938L7.031-39.938L7.031-39.938Q7.172-39.938 7.348-39.973L7.348-39.973L7.277-40.043L7.594-40.043L7.594-40.043Q7.734-40.078 7.875-40.078L7.875-40.078L7.875-40.078Q8.191-40.078 8.473-39.902L8.473-39.902L8.473-39.902Q8.859-39.727 9.105-39.445L9.105-39.445L9-39.551L8.965-39.516L9.246-39.199L9.281-39.129L9.281-39.129Q9.457-38.777 9.492-38.180L9.492-38.180L9.492-38.180Q9.492-37.723 9.387-37.160L9.387-37.160L9.387-34.172L9.387-34.172Q9.527-33.469 9.527-32.906L9.527-32.906L9.527-32.906Q9.527-32.344 9.387-31.922L9.387-31.922L9.387-31.641L9.352-31.605L9.316-31.359L9.387-31.254L9.387-27.105L9.387-27.105Q9.457-26.684 9.457-26.367L9.457-26.367L9.457-26.367Q9.457-26.051 9.387-25.840L9.387-25.840L9.387-24.996L9.387-24.996Q9.387-25.066 9.316-25.066L9.316-25.066L9.316-24.645L9.387-24.715L9.387-24.012L9.316-24.082L9.316-23.484L9.387-23.520L9.387-21.340L9.352-21.340L9.352-21.199L9.387-21.199L9.387-20.883L9.387-20.883Q9.457-20.637 9.457-20.355L9.457-20.355L9.457-20.355Q9.457-20.074 9.387-19.723L9.387-19.723L9.387-18.949L9.352-18.844L9.316-18.809L9.387-18.703L9.387-16.875L9.352-16.910L9.352-16.770L9.387-16.770L9.387-15.820L9.387-15.820Q9.457-15.574 9.457-15.188L9.457-15.188L9.457-14.941L9.387-14.027L9.387-13.008L9.457-12.516L9.527-11.988L9.527-11.988Q9.598-11.285 9.633-10.828L9.633-10.828L9.633-10.336L9.633-10.336Q9.633-9.281 9.387-8.684L9.387-8.684L9.387-8.297L9.352-8.402L9.316-8.402L9.316-7.980L9.316-7.980Q9.387-8.016 9.387-8.086L9.387-8.086L9.387-7.629L9.387-7.629Q9.457-7.418 9.457-7.207L9.457-7.207L9.457-7.207Q9.457-6.996 9.352-6.750L9.352-6.750L9.387-6.785L9.387-6.152L11.039-6.152L11.039-6.152Q11.215-6.223 11.461-6.223L11.461-6.223L11.637-6.223L11.953-6.188L12.270-6.152L13.148-6.152L13.781-6.188L14.273-6.188L14.273-6.188Q14.730-6.188 15.082-6.152L15.082-6.152L17.227-6.152L17.227-6.152Q17.648-6.293 18.105-6.293L18.105-6.293L18.105-6.293Q18.527-6.293 18.949-6.188L18.949-6.188L18.949-6.188Q20.039-5.941 20.250-5.238L20.250-5.238L20.250-5.238Q20.355-4.957 20.355-4.676L20.355-4.676L20.355-4.289L20.426-3.762L20.426-3.621L20.426-3.621Q20.426-3.410 20.355-3.234L20.355-3.234Z"></path><path d="M39.094-13.184L39.094-13.184L39.094-13.184Q39.270-13.184 39.480-13.043L39.480-13.043L40.008-13.043L39.375-16.313L39.375-16.313Q39.129-16.945 39.129-17.402L39.129-17.402L39.129-17.508L38.742-19.406L38.742-19.406Q38.461-19.934 38.320-20.918L38.320-20.918L38.250-21.727L38.250-21.727Q38.180-22.219 38.145-22.465L38.145-22.465L37.863-23.801L37.934-23.871L37.934-24.047L37.934-24.047Q37.898-24.117 37.793-24.188L37.793-24.188L37.688-24.645L37.617-24.293L37.582-24.293L37.582-24.188L37.477-23.625L37.477-23.625Q37.477-23.449 37.406-23.344L37.406-23.344L37.195-22.289L37.195-22.289Q37.230-22.148 37.230-21.938L37.230-21.938L37.230-21.938Q37.230-21.516 37.090-20.883L37.090-20.883L37.090-20.883Q36.984-20.531 36.844-20.109L36.844-20.109L36.844-20.109Q36.773-19.828 36.633-19.512L36.633-19.512L36.492-18.773L36.422-18.773L36.492-18.633L36.352-18.105L36.316-17.895L36.316-17.930L36.246-17.438L36.211-17.473L36.211-17.473Q36.105-17.191 36.070-16.910L36.070-16.910L36.105-16.875L36.070-16.559L36.070-16.559Q36.105-16.313 36.105-16.066L36.105-16.066L36.105-16.066Q36.105-15.117 35.648-14.484L35.648-14.484L35.367-13.184L35.473-13.043L36.211-13.043L36.211-13.043Q36.176-13.008 36.176-12.973L36.176-12.973L36.176-12.938L36.422-12.973L36.387-13.043L37.195-13.043L37.195-13.008L37.336-13.008L37.336-13.043L37.758-13.043L37.758-13.043Q38.496-13.184 39.094-13.184ZM48.375-1.582L48.375-1.406L48.375-1.406Q48.410-1.301 48.410-1.195L48.410-1.195L48.410-1.195Q48.410-0.703 47.813-0.352L47.813-0.352L47.813-0.352Q47.285-0.070 46.793-0.070L46.793-0.070L46.793-0.070Q46.652-0.070 46.512-0.105L46.512-0.105L43.840-0.105L43.840-0.105Q43.664-0.105 43.453-0.176L43.453-0.176L43.453-0.176Q42.820-0.176 42.469-0.703L42.469-0.703L42.469-0.703Q42.223-1.090 42.223-1.547L42.223-1.547L42.223-1.547Q42.223-1.688 42.258-1.828L42.258-1.828L42.082-2.777L42.082-2.777Q41.906-3.094 41.906-3.480L41.906-3.480L41.906-3.691L41.906-3.691Q41.871-3.762 41.836-3.902L41.836-3.902L41.766-4.184L41.766-4.184Q41.730-4.324 41.730-4.430L41.730-4.430L41.730-4.430Q41.730-4.570 41.801-4.605L41.801-4.605L41.730-4.816L41.660-5.168L41.625-5.133L41.484-5.695L41.484-5.695Q41.379-6.012 41.344-6.398L41.344-6.398L41.273-6.891L41.027-7.066L39.586-7.066L39.516-7.172L39.516-7.172Q39.375-7.207 39.199-7.207L39.199-7.207L39.164-7.137L39.164-7.066L37.371-7.066L37.406-7.102L37.160-7.102L37.195-7.066L36.844-7.066L36.844-7.066Q36.457-6.996 36.141-6.996L36.141-6.996L36.141-6.996Q35.859-6.996 35.613-7.066L35.613-7.066L34.172-7.066L34.031-6.434L34.031-6.434Q34.066-6.293 34.066-6.082L34.066-6.082L34.066-6.082Q34.066-5.625 33.891-4.957L33.891-4.957L33.645-4.219L33.645-4.219Q33.504-3.727 33.469-3.551L33.469-3.551L33.117-1.793L33.117-1.617L33.117-1.617Q33.117-1.090 32.730-0.668L32.730-0.668L32.730-0.668Q32.520-0.422 32.238-0.281L32.238-0.281L32.238-0.281Q31.887 0 31.500 0L31.500 0L31.500 0Q31.254 0 31.008-0.105L31.008-0.105L30.164-0.105L30.164-0.105Q30.129-0.176 30.094-0.176L30.094-0.176L30.094-0.176Q30.023-0.176 29.953-0.105L29.953-0.105L28.512-0.105L28.512-0.105Q28.266-0.105 28.020-0.176L28.020-0.176L28.020-0.176Q26.965-0.281 26.965-1.898L26.965-1.898L26.965-1.898Q26.965-2.180 27-2.496L27-2.496L27-2.496Q27.070-3.305 27.316-4.219L27.316-4.219L27.316-4.219Q27.527-4.992 27.738-5.449L27.738-5.449L27.879-6.117L27.949-6.152L27.984-6.363L27.914-6.398L28.477-9.105L28.512-9.105L28.512-9.316L28.547-9.492L28.688-10.160L29.496-14.168L29.496-14.168Q29.566-15.012 29.742-15.434L29.742-15.434L29.883-16.242L29.883-16.242Q29.918-16.910 30.129-17.438L30.129-17.438L30.480-19.160L30.480-19.160Q30.551-20.531 30.938-21.480L30.938-21.480L31.289-23.168L31.359-23.133L31.359-23.590L31.359-23.590Q31.359-25.066 31.922-26.367L31.922-26.367L32.133-27.316L32.133-27.422L32.133-27.422Q32.133-27.844 32.344-28.371L32.344-28.371L32.484-29.074L32.484-29.039L32.520-29.250L32.590-29.426L32.520-29.355L32.730-30.410L32.766-30.902L32.836-31.395L32.836-31.395Q32.941-31.957 33.117-32.309L33.117-32.309L33.715-35.367L33.715-35.473L33.715-35.473Q33.715-35.859 33.891-36.211L33.891-36.211L34.242-38.004L34.313-38.004L34.348-38.145L34.313-38.250L34.418-38.777L34.418-38.777Q34.488-39.164 34.734-39.445L34.734-39.445L34.734-39.445Q34.945-39.727 35.262-39.832L35.262-39.832L35.262-39.832Q35.578-39.973 35.859-39.973L35.859-39.973L37.336-39.973L37.336-39.973Q37.828-40.078 38.250-40.078L38.250-40.078L38.250-40.078Q38.672-40.078 39.059-39.973L39.059-39.973L39.516-39.973L39.516-39.973Q40.465-39.973 40.887-39.094L40.887-39.094L40.887-39.094Q41.098-38.707 41.098-38.250L41.098-38.250L41.203-37.652L41.168-37.688L41.168-37.688Q41.203-37.477 41.238-37.230L41.238-37.230L41.273-37.266L41.625-35.473L41.836-34.945L41.977-34.418L41.977-34.418Q42.117-33.926 42.117-33.574L42.117-33.574L42.117-33.574Q42.117-33.434 42.082-33.293L42.082-33.293L42.750-29.883L42.715-29.883L42.715-29.883Q42.750-29.707 42.820-29.531L42.820-29.531L42.855-29.461L42.855-29.461Q43.102-28.828 43.102-28.301L43.102-28.301L43.102-28.160L43.242-27.387L43.242-27.387Q43.488-26.895 43.488-26.473L43.488-26.473L43.488-26.262L43.594-25.699L43.523-25.699L43.523-25.699Q43.559-25.488 43.629-25.313L43.629-25.313L43.664-25.348L43.805-24.539L43.980-24.012L44.156-23.449L44.156-23.449Q44.262-22.922 44.262-22.500L44.262-22.500L44.262-22.289L44.473-21.305L44.473-21.305Q44.895-20.320 44.895-19.336L44.895-19.336L44.895-19.195L45.281-17.191L45.281-17.191Q45.387-16.980 45.422-16.699L45.422-16.699L45.492-16.207L45.598-15.609L45.738-15.293L45.844-14.977L45.844-14.977Q45.914-14.801 45.914-14.590L45.914-14.590L45.914-14.590Q45.914-14.449 45.879-14.309L45.879-14.309L46.266-12.270L46.266-12.270Q46.547-11.602 46.723-10.863L46.723-10.863L46.723-10.863Q46.863-10.160 46.863-9.633L46.863-9.633L46.863-9.422L47.215-7.523L47.215-7.523Q47.320-7.207 47.426-6.715L47.426-6.715L47.566-5.906L47.566-5.766L47.707-5.133L47.883-4.535L47.883-4.535Q48.059-3.797 48.059-3.305L48.059-3.305L48.340-1.898L48.340-1.898Q48.375-1.723 48.375-1.582L48.375-1.582Z"></path><path d="M68.766-19.055L68.766-19.055Q68.590-18.422 68.273-17.859L68.273-17.859L68.273-17.859Q67.887-17.227 67.254-16.805L67.254-16.805L67.254-16.805Q66.480-16.383 65.602-16.137L65.602-16.137L65.602-16.137Q65.285-16.102 64.969-16.102L64.969-16.102L64.582-16.102L64.582-16.102Q64.301-16.207 63.984-16.207L63.984-16.207L63.984-16.207Q63.703-16.207 63.422-16.102L63.422-16.102L60.996-16.102L60.996-20.426L60.926-20.426L60.996-21.129L60.996-21.551L61.031-22.043L61.102-22.570L61.102-22.816L61.102-22.816Q61.102-23.238 60.996-23.555L60.996-23.555L60.996-24.469L60.926-24.398L60.996-24.680L60.996-27.563L60.996-27.563Q61.172-28.055 61.172-29.039L61.172-29.039L61.172-29.039Q61.172-30.059 60.996-30.516L60.996-30.516L60.996-33.855L60.996-33.855Q60.891-33.715 60.785-33.715L60.785-33.715L60.785-33.715Q60.785-33.855 60.891-33.996L60.891-33.996L60.996-33.926L60.996-34.031L61.734-34.031L61.734-34.031Q61.945-33.996 62.121-33.996L62.121-33.996L62.121-33.996Q62.297-33.996 62.473-34.031L62.473-34.031L63.457-34.031L63.457-34.031Q63.703-33.996 63.949-33.996L63.949-33.996L63.949-33.996Q64.195-33.996 64.441-34.031L64.441-34.031L64.969-34.031L64.969-34.031Q66.094-34.031 67.078-33.434L67.078-33.434L67.078-33.434Q67.113-33.469 67.148-33.469L67.148-33.469L67.148-33.469Q67.254-33.469 67.289-33.293L67.289-33.293L67.289-33.293Q68.238-32.625 68.660-31.535L68.660-31.535L68.660-31.535Q68.695-31.184 68.801-30.621L68.801-30.621L68.977-29.672L68.977-27.668L68.977-27.668Q68.977-27.387 68.906-26.930L68.906-26.930L68.836-26.121L68.836-25.664L68.836-25.664Q68.836-24.996 68.977-24.609L68.977-24.609L68.977-24.363L69.047-24.293L68.977-24.223L68.977-22.711L68.977-22.711Q68.941-22.359 68.941-22.043L68.941-22.043L68.941-22.043Q68.941-21.762 68.977-21.480L68.977-21.480L68.977-20.074L68.977-20.074Q68.977-19.828 68.941-19.512L68.941-19.512L68.766-19.055L68.730-18.949L68.766-18.984L68.766-19.090L68.766-19.090Q68.801-19.090 68.766-19.055L68.766-19.055ZM75.516-2.285L75.305-2.742L75.305-2.742Q75.164-3.199 74.883-3.586L74.883-3.586L74.461-4.465L74.461-4.465Q74.355-4.852 73.898-5.520L73.898-5.520L73.934-5.555L72.598-8.297L72.422-8.613L72.352-8.824L72.176-8.965L72.141-9.035L72.141-9.035Q72.105-9.070 72.105-9.105L72.105-9.105L72.105-9.105Q72.105-9.141 72.176-9.176L72.176-9.176L71.859-9.773L71.859-9.773Q71.859-10.125 71.613-10.617L71.613-10.617L71.613-10.617Q71.402-10.969 71.121-11.320L71.121-11.320L70.805-11.988L70.805-11.988Q71.895-12.762 72.598-13.535L72.598-13.535L72.598-13.535Q73.617-14.555 73.828-15.469L73.828-15.469L73.828-15.469Q74.250-16.313 74.531-17.262L74.531-17.262L74.531-17.262Q74.813-17.789 74.813-18.387L74.813-18.387L74.813-18.527L74.813-18.527Q74.953-19.336 74.953-20.074L74.953-20.074L74.953-20.602L74.953-20.602Q75.023-20.883 75.023-21.234L75.023-21.234L75.023-21.480L74.988-21.973L74.953-22.395L74.953-23.695L74.953-23.695Q75.023-24.188 75.023-24.645L75.023-24.645L75.023-24.645Q75.023-25.102 74.953-25.488L74.953-25.488L74.953-26.438L74.953-26.438Q75.059-26.754 75.059-27.070L75.059-27.070L75.059-27.070Q75.059-27.352 74.953-27.633L74.953-27.633L74.953-30.023L74.953-30.023Q74.953-32.906 73.406-35.332L73.406-35.332L73.125-35.824L72.809-36.316L72.809-36.316Q72.422-36.844 72.035-37.090L72.035-37.090L72.035-37.090Q71.578-37.547 71.051-37.934L71.051-37.934L71.051-37.934Q70.910-38.109 70.664-38.215L70.664-38.215L70.664-38.215Q69.785-38.848 68.766-39.270L68.766-39.270L68.766-39.164L68.766-39.164Q68.098-39.621 67.219-39.867L67.219-39.867L67.219-39.867Q66.621-40.043 66.129-40.043L66.129-40.043L66.129-40.043Q65.813-40.043 65.531-39.973L65.531-39.973L64.969-40.008L62.367-40.008L62.367-40.008Q62.121-40.113 61.840-40.113L61.840-40.113L61.840-40.113Q61.559-40.113 61.277-40.008L61.277-40.008L60.223-40.008L60.223-40.008Q60.012-40.113 59.730-40.113L59.730-40.113L59.730-40.113Q59.449-40.113 59.098-40.008L59.098-40.008L58.219-40.008L58.219-40.008Q57.656-40.148 57.129-40.148L57.129-40.148L57.129-40.148Q56.848-40.148 56.602-40.113L56.602-40.113L56.602-40.113Q55.617-39.973 55.266-39.340L55.266-39.340L55.266-39.340Q55.020-38.953 55.020-38.496L55.020-38.496L55.020-38.320L55.090-38.250L55.090-38.145L55.020-38.109L55.020-35.859L55.020-35.859Q54.984-35.684 54.984-35.473L54.984-35.473L54.984-35.473Q54.984-35.297 55.020-35.086L55.020-35.086L55.020-33.855L55.055-33.855L55.055-33.750L55.020-33.750L55.020-32.063L55.020-32.063Q54.949-31.184 54.949-30.410L54.949-30.410L54.949-30.410Q54.949-29.672 55.020-29.004L55.020-29.004L55.020-27.527L55.055-27.492L55.055-27.422L55.020-27.387L55.020-25.840L55.020-25.840Q54.914-25.383 54.914-24.750L54.914-24.750L54.914-24.398L54.949-23.625L54.984-22.887L54.984-22.887Q54.984-22.605 54.949-22.078L54.949-22.078L54.879-21.199L54.879-20.883L54.879-20.883Q54.879-20.074 55.020-19.547L55.020-19.547L55.020-16.980L55.055-17.016L55.055-16.629L54.984-16.242L54.984-15.961L54.984-15.961Q54.984-15.680 55.020-15.469L55.020-15.469L55.020-11.391L55.020-11.391Q54.949-11.109 54.949-10.723L54.949-10.723L55.020-10.090L55.020-8.367L55.020-8.367Q54.949-8.051 54.949-7.770L54.949-7.770L54.949-7.770Q54.949-7.523 55.020-7.277L55.020-7.277L55.020-3.691L54.984-3.340L54.984-2.672L54.984-2.672Q54.984-2.391 55.020-2.215L55.020-2.215L55.020-1.652L55.020-1.652Q55.020-0.527 56.074-0.211L56.074-0.211L56.074-0.211Q56.496-0.070 57.094-0.070L57.094-0.070L57.340-0.070L58.008-0.105L58.605-0.141L59.520-0.141L59.520-0.141Q60.645-0.141 60.961-1.266L60.961-1.266L60.855-1.195L60.855-1.195Q60.926-1.477 60.926-1.758L60.926-1.758L60.996-1.723L60.996-2.250L60.996-2.250Q61.066-2.496 61.066-2.707L61.066-2.707L61.066-2.707Q61.066-2.953 60.996-3.199L60.996-3.199L60.996-7.664L60.996-7.664Q61.031-7.875 61.031-8.051L61.031-8.051L61.031-8.051Q61.031-8.227 60.996-8.402L60.996-8.402L60.996-10.055L60.961-10.020L60.891-10.055L60.891-10.055Q60.996-10.195 61.172-10.266L61.172-10.266L61.031-10.125L61.418-10.125L61.418-10.230L61.418-10.230Q61.734-10.090 62.051-10.090L62.051-10.090L62.051-10.090Q62.227-10.090 62.402-10.125L62.402-10.125L64.441-10.125L64.441-10.125Q65.074-10.055 65.461-9.316L65.461-9.316L65.637-9L65.777-8.684L65.777-8.684Q65.953-8.227 66.094-8.016L66.094-8.016L68.344-3.375L68.414-3.129L68.520-2.848L68.520-2.848Q68.625-2.602 68.801-2.426L68.801-2.426L69.504-0.984L69.504-0.984Q69.645-0.703 69.891-0.492L69.891-0.492L70.172-0.316L70.172-0.316Q70.699 0 71.859 0L71.859 0L71.859 0Q72.809 0 73.617-0.141L73.617-0.141L74.180-0.141L74.180-0.141Q75.023-0.141 75.445-0.844L75.445-0.844L75.445-0.844Q75.691-1.230 75.691-1.617L75.691-1.617L75.691-1.617Q75.691-1.934 75.516-2.285L75.516-2.285Z"></path><path d="M94.535-13.184L94.535-13.184L94.535-13.184Q94.711-13.184 94.922-13.043L94.922-13.043L95.449-13.043L94.816-16.313L94.816-16.313Q94.570-16.945 94.570-17.402L94.570-17.402L94.570-17.508L94.184-19.406L94.184-19.406Q93.902-19.934 93.762-20.918L93.762-20.918L93.691-21.727L93.691-21.727Q93.621-22.219 93.586-22.465L93.586-22.465L93.305-23.801L93.375-23.871L93.375-24.047L93.375-24.047Q93.340-24.117 93.234-24.188L93.234-24.188L93.129-24.645L93.059-24.293L93.023-24.293L93.023-24.188L92.918-23.625L92.918-23.625Q92.918-23.449 92.848-23.344L92.848-23.344L92.637-22.289L92.637-22.289Q92.672-22.148 92.672-21.938L92.672-21.938L92.672-21.938Q92.672-21.516 92.531-20.883L92.531-20.883L92.531-20.883Q92.426-20.531 92.285-20.109L92.285-20.109L92.285-20.109Q92.215-19.828 92.074-19.512L92.074-19.512L91.934-18.773L91.863-18.773L91.934-18.633L91.793-18.105L91.758-17.895L91.758-17.930L91.688-17.438L91.652-17.473L91.652-17.473Q91.547-17.191 91.512-16.910L91.512-16.910L91.547-16.875L91.512-16.559L91.512-16.559Q91.547-16.313 91.547-16.066L91.547-16.066L91.547-16.066Q91.547-15.117 91.090-14.484L91.090-14.484L90.809-13.184L90.914-13.043L91.652-13.043L91.652-13.043Q91.617-13.008 91.617-12.973L91.617-12.973L91.617-12.938L91.863-12.973L91.828-13.043L92.637-13.043L92.637-13.008L92.777-13.008L92.777-13.043L93.199-13.043L93.199-13.043Q93.938-13.184 94.535-13.184ZM103.816-1.582L103.816-1.406L103.816-1.406Q103.852-1.301 103.852-1.195L103.852-1.195L103.852-1.195Q103.852-0.703 103.254-0.352L103.254-0.352L103.254-0.352Q102.727-0.070 102.234-0.070L102.234-0.070L102.234-0.070Q102.094-0.070 101.953-0.105L101.953-0.105L99.281-0.105L99.281-0.105Q99.105-0.105 98.895-0.176L98.895-0.176L98.895-0.176Q98.262-0.176 97.910-0.703L97.910-0.703L97.910-0.703Q97.664-1.090 97.664-1.547L97.664-1.547L97.664-1.547Q97.664-1.688 97.699-1.828L97.699-1.828L97.523-2.777L97.523-2.777Q97.348-3.094 97.348-3.480L97.348-3.480L97.348-3.691L97.348-3.691Q97.313-3.762 97.277-3.902L97.277-3.902L97.207-4.184L97.207-4.184Q97.172-4.324 97.172-4.430L97.172-4.430L97.172-4.430Q97.172-4.570 97.242-4.605L97.242-4.605L97.172-4.816L97.102-5.168L97.066-5.133L96.926-5.695L96.926-5.695Q96.820-6.012 96.785-6.398L96.785-6.398L96.715-6.891L96.469-7.066L95.027-7.066L94.957-7.172L94.957-7.172Q94.816-7.207 94.641-7.207L94.641-7.207L94.605-7.137L94.605-7.066L92.813-7.066L92.848-7.102L92.602-7.102L92.637-7.066L92.285-7.066L92.285-7.066Q91.898-6.996 91.582-6.996L91.582-6.996L91.582-6.996Q91.301-6.996 91.055-7.066L91.055-7.066L89.613-7.066L89.473-6.434L89.473-6.434Q89.508-6.293 89.508-6.082L89.508-6.082L89.508-6.082Q89.508-5.625 89.332-4.957L89.332-4.957L89.086-4.219L89.086-4.219Q88.945-3.727 88.910-3.551L88.910-3.551L88.559-1.793L88.559-1.617L88.559-1.617Q88.559-1.090 88.172-0.668L88.172-0.668L88.172-0.668Q87.961-0.422 87.680-0.281L87.680-0.281L87.680-0.281Q87.328 0 86.941 0L86.941 0L86.941 0Q86.695 0 86.449-0.105L86.449-0.105L85.605-0.105L85.605-0.105Q85.570-0.176 85.535-0.176L85.535-0.176L85.535-0.176Q85.465-0.176 85.395-0.105L85.395-0.105L83.953-0.105L83.953-0.105Q83.707-0.105 83.461-0.176L83.461-0.176L83.461-0.176Q82.406-0.281 82.406-1.898L82.406-1.898L82.406-1.898Q82.406-2.180 82.441-2.496L82.441-2.496L82.441-2.496Q82.512-3.305 82.758-4.219L82.758-4.219L82.758-4.219Q82.969-4.992 83.180-5.449L83.180-5.449L83.320-6.117L83.391-6.152L83.426-6.363L83.355-6.398L83.918-9.105L83.953-9.105L83.953-9.316L83.988-9.492L84.129-10.160L84.938-14.168L84.938-14.168Q85.008-15.012 85.184-15.434L85.184-15.434L85.324-16.242L85.324-16.242Q85.359-16.910 85.570-17.438L85.570-17.438L85.922-19.160L85.922-19.160Q85.992-20.531 86.379-21.480L86.379-21.480L86.730-23.168L86.801-23.133L86.801-23.590L86.801-23.590Q86.801-25.066 87.363-26.367L87.363-26.367L87.574-27.316L87.574-27.422L87.574-27.422Q87.574-27.844 87.785-28.371L87.785-28.371L87.926-29.074L87.926-29.039L87.961-29.250L88.031-29.426L87.961-29.355L88.172-30.410L88.207-30.902L88.277-31.395L88.277-31.395Q88.383-31.957 88.559-32.309L88.559-32.309L89.156-35.367L89.156-35.473L89.156-35.473Q89.156-35.859 89.332-36.211L89.332-36.211L89.684-38.004L89.754-38.004L89.789-38.145L89.754-38.250L89.859-38.777L89.859-38.777Q89.930-39.164 90.176-39.445L90.176-39.445L90.176-39.445Q90.387-39.727 90.703-39.832L90.703-39.832L90.703-39.832Q91.020-39.973 91.301-39.973L91.301-39.973L92.777-39.973L92.777-39.973Q93.270-40.078 93.691-40.078L93.691-40.078L93.691-40.078Q94.113-40.078 94.500-39.973L94.500-39.973L94.957-39.973L94.957-39.973Q95.906-39.973 96.328-39.094L96.328-39.094L96.328-39.094Q96.539-38.707 96.539-38.250L96.539-38.250L96.645-37.652L96.609-37.688L96.609-37.688Q96.645-37.477 96.680-37.230L96.680-37.230L96.715-37.266L97.066-35.473L97.277-34.945L97.418-34.418L97.418-34.418Q97.559-33.926 97.559-33.574L97.559-33.574L97.559-33.574Q97.559-33.434 97.523-33.293L97.523-33.293L98.191-29.883L98.156-29.883L98.156-29.883Q98.191-29.707 98.262-29.531L98.262-29.531L98.297-29.461L98.297-29.461Q98.543-28.828 98.543-28.301L98.543-28.301L98.543-28.160L98.684-27.387L98.684-27.387Q98.930-26.895 98.930-26.473L98.930-26.473L98.930-26.262L99.035-25.699L98.965-25.699L98.965-25.699Q99-25.488 99.070-25.313L99.070-25.313L99.105-25.348L99.246-24.539L99.422-24.012L99.598-23.449L99.598-23.449Q99.703-22.922 99.703-22.500L99.703-22.500L99.703-22.289L99.914-21.305L99.914-21.305Q100.336-20.320 100.336-19.336L100.336-19.336L100.336-19.195L100.723-17.191L100.723-17.191Q100.828-16.980 100.863-16.699L100.863-16.699L100.934-16.207L101.039-15.609L101.180-15.293L101.285-14.977L101.285-14.977Q101.355-14.801 101.355-14.590L101.355-14.590L101.355-14.590Q101.355-14.449 101.320-14.309L101.320-14.309L101.707-12.270L101.707-12.270Q101.988-11.602 102.164-10.863L102.164-10.863L102.164-10.863Q102.305-10.160 102.305-9.633L102.305-9.633L102.305-9.422L102.656-7.523L102.656-7.523Q102.762-7.207 102.867-6.715L102.867-6.715L103.008-5.906L103.008-5.766L103.148-5.133L103.324-4.535L103.324-4.535Q103.500-3.797 103.500-3.305L103.500-3.305L103.781-1.898L103.781-1.898Q103.816-1.723 103.816-1.582L103.816-1.582Z"></path><path d="M131.730-38.391L131.730-38.391L131.695-38.285L131.590-37.758L131.590-37.758Q131.555-37.406 131.449-37.055L131.449-37.055L130.535-32.414L130.500-31.992L130.430-31.570L130.430-31.570Q130.359-31.043 130.184-30.727L130.184-30.727L129.621-27.879L129.621-27.879Q129.621-27.738 129.656-27.563L129.656-27.563L129.656-27.563Q129.656-26.754 129.199-25.734L129.199-25.734L129.023-24.855L129.023-24.715L129.023-24.715Q129.023-24.504 128.953-24.223L128.953-24.223L128.883-23.906L128.777-23.590L128.602-22.711L128.496-22.148L128.426-21.621L128.426-21.621Q128.285-21.023 128.145-20.531L128.145-20.531L127.969-19.512L127.898-19.547L127.688-18.738L127.688-18.738Q127.723-18.668 127.758-18.563L127.758-18.563L127.688-18.105L127.547-17.965L127.512-17.754L127.582-17.684L127.020-14.766L127.020-14.766Q126.984-13.535 126.422-11.883L126.422-11.883L126.246-11.039L126.246-10.898L126.246-10.898Q126.246-9.387 125.613-7.770L125.613-7.770L125.578-7.559L125.543-7.559L125.508-7.383L125.543-7.383L125.438-6.996L125.438-6.996Q125.402-5.449 124.805-3.797L124.805-3.797L124.559-2.531L124.488-2.566L124.453-2.355L124.559-2.496L124.453-2.039L124.453-1.758L124.453-1.758Q124.453-1.301 124.277-0.949L124.277-0.949L124.277-0.949Q123.961-0.387 123.434-0.316L123.434-0.316L123.434-0.316Q123.152-0.211 122.871-0.211L122.871-0.211L122.414-0.211L122.414-0.211Q121.887 0 120.762 0L120.762 0L120.410 0L120.410 0Q118.969-0.070 118.512-0.387L118.512-0.387L118.512-0.387Q118.230-0.527 118.055-0.809L118.055-0.809L118.055-0.809Q117.668-1.195 117.668-1.723L117.668-1.723L117.668-1.898L117.457-2.918L117.457-2.918Q117.281-3.234 117.281-3.621L117.281-3.621L117.281-3.832L117.141-4.535L117.246-4.535L117.246-4.535Q117.211-4.711 117.105-4.922L117.105-4.922L117.070-4.746L117-5.168L117-5.168Q116.895-5.520 116.859-5.871L116.859-5.871L116.473-7.770L116.473-7.770Q116.227-8.262 116.227-8.684L116.227-8.684L116.227-8.684Q116.227-8.824 116.262-8.930L116.262-8.930L116.121-9.563L116.191-9.633L116.191-9.633Q116.156-9.738 116.086-9.914L116.086-9.914L116.051-9.879L116.051-9.949L116.086-9.949L116.086-9.949Q115.805-10.688 115.629-12.023L115.629-12.023L115.488-12.691L115.488-12.691Q115.242-13.359 115.242-13.746L115.242-13.746L115.242-13.922L115.066-14.871L115.066-14.871Q114.891-15.117 114.855-15.504L114.855-15.504L114.820-15.820L114.785-16.172L114.785-16.348L114.750-16.523L114.715-16.523L114.680-16.840L114.715-16.875L114.715-17.016L114.680-17.051L114.645-17.051L114.504-17.684L114.609-17.684L114.539-17.895L114.469-18.070L114.434-18.035L113.871-20.848L113.871-20.848Q113.695-21.164 113.590-21.691L113.590-21.691L113.555-22.184L113.520-22.605L113.133-24.469L113.203-24.539L113.133-24.785L113.063-24.785L112.746-26.473L112.816-26.508L112.781-26.754L112.711-26.930L112.641-26.965L112.395-28.125L112.395-28.125Q112.359-28.336 112.219-28.793L112.219-28.793L112.008-29.461L112.008-29.461Q111.832-30.059 111.832-30.480L111.832-30.480L111.832-30.480Q111.832-30.691 111.867-30.832L111.867-30.832L111.445-32.906L111.305-33.363L111.164-33.855L111.164-33.855Q111.059-34.313 111.059-34.629L111.059-34.629L111.059-34.805L110.848-36.035L110.918-36.070L110.813-36.527L110.742-36.563L110.602-37.125L110.496-37.477L110.391-37.863L110.391-37.863Q110.320-38.145 110.320-38.355L110.320-38.355L110.320-38.355Q110.320-38.496 110.355-38.602L110.355-38.602L110.355-38.602Q110.355-39.199 110.777-39.621L110.777-39.621L110.777-39.621Q111.059-40.113 111.902-40.184L111.902-40.184L111.902-40.184Q112.078-40.219 112.254-40.219L112.254-40.219L112.254-40.219Q112.430-40.219 112.641-40.184L112.641-40.184L112.641-40.184Q112.957-40.148 113.238-40.078L113.238-40.078L113.555-40.078L113.660-39.973L113.801-39.973L113.871-40.078L114.434-40.078L114.434-40.078Q114.645-40.148 114.855-40.148L114.855-40.148L114.855-40.148Q115.137-40.148 115.418-40.043L115.418-40.043L115.418-40.043Q115.945-39.832 116.156-39.375L116.156-39.375L116.156-39.375Q116.297-39.129 116.367-38.883L116.367-38.883L116.648-37.477L116.648-37.477Q117.141-36.246 117.211-34.664L117.211-34.664L117.633-32.449L117.633-32.449Q117.809-32.133 117.809-31.746L117.809-31.746L117.809-31.605L118.160-29.918L118.160-29.813L118.160-29.813Q118.301-29.145 118.301-29.109L118.301-29.109L118.406-28.688L118.512-28.301L118.512-28.301Q118.617-27.809 118.652-27.457L118.652-27.457L118.758-26.895L118.758-26.895Q119.004-26.121 119.004-25.699L119.004-25.699L119.004-25.594L119.215-24.574L119.215-24.574Q119.320-24.223 119.355-23.836L119.355-23.836L119.355-23.836Q119.461-23.379 119.461-23.309L119.461-23.309L119.461-23.273L119.426-23.238L119.426-23.238Q119.496-23.063 119.496-22.922L119.496-22.922L119.531-22.676L119.602-22.711L119.953-20.813L119.953-20.813Q120.305-20.039 120.551-18.879L120.551-18.879L120.551-18.879Q120.762-17.789 120.762-17.086L120.762-17.086L120.762-16.875L121.008-15.609L120.938-15.539L120.832-15.469L120.832-15.469Q120.973-15.434 121.043-15.434L121.043-15.434L121.043-15.434Q121.184-15.434 121.254-15.504L121.254-15.504L121.254-15.574L121.254-15.574Q121.254-15.645 121.219-15.785L121.219-15.785L121.078-15.680L121.148-16.031L121.148-16.172L121.148-16.172Q121.148-16.488 121.359-17.086L121.359-17.086L121.500-17.719L121.500-17.719Q121.500-18.563 121.746-18.879L121.746-18.879L121.816-19.266L121.887-19.336L121.816-19.336L121.922-19.828L121.922-19.828Q121.887-19.969 121.887-20.074L121.887-20.074L121.887-20.074Q121.887-20.461 122.133-20.883L122.133-20.883L122.484-22.641L122.484-22.641Q122.484-23.309 122.730-23.871L122.730-23.871L123.117-25.805L123.117-25.805Q123.152-26.191 123.258-26.578L123.258-26.578L123.504-27.703L123.504-27.703Q123.504-28.160 123.680-28.617L123.680-28.617L123.680-28.617Q124.242-31.535 124.277-31.535L124.277-31.535L124.418-32.590L124.418-32.590Q124.488-33.223 124.699-33.645L124.699-33.645L124.840-34.418L124.840-34.418Q124.875-35.402 125.051-36.422L125.051-36.422L125.051-36.422Q125.262-37.652 125.613-38.355L125.613-38.355L125.719-38.883L125.719-38.883Q125.930-39.902 126.984-40.043L126.984-40.043L126.984-40.043Q127.230-40.078 127.512-40.078L127.512-40.078L128.953-40.078L128.953-40.078Q129.199-40.113 129.445-40.113L129.445-40.113L129.445-40.113Q129.691-40.113 129.902-40.078L129.902-40.078L129.902-40.078Q130.465-40.043 130.887-39.902L130.887-39.902L130.887-39.902Q131.766-39.586 131.766-38.742L131.766-38.742L131.766-38.742Q131.766-38.566 131.730-38.391Z"></path><path d="M155.672-4.605L155.707-4.219L155.707-3.586L155.707-3.586Q155.707-3.340 155.672-3.164L155.672-3.164L155.672-2.637L155.637-2.602L155.672-2.566L155.672-1.617L155.672-1.617Q155.672-1.020 155.285-0.598L155.285-0.598L155.285-0.598Q154.828-0.070 154.055-0.070L154.055-0.070L154.055-0.070Q153.809-0.070 153.563-0.105L153.563-0.105L152.227-0.105L150.539-0.070L148.852 0L148.078 0L148.078 0Q146.566 0 145.477-0.105L145.477-0.105L144.914-0.105L144.914-0.105Q144.352-0.070 143.859-0.070L143.859-0.070L143.859-0.070Q143.367-0.070 142.945-0.105L142.945-0.105L141.574-0.105L141.574-0.105Q141.398-0.070 141.223-0.070L141.223-0.070L141.223-0.070Q141.047-0.070 140.836-0.105L140.836-0.105L140.203-0.105L140.203-0.105Q139.043-0.105 138.656-1.688L138.656-1.688L138.656-1.688Q138.480-2.320 138.480-2.918L138.480-2.918L138.480-2.918Q138.480-3.586 138.727-4.184L138.727-4.184L138.727-4.184Q138.797-4.324 138.797-4.395L138.797-4.395L138.797-4.395Q138.797-4.500 138.727-4.570L138.727-4.570L138.727-8.402L138.727-8.402Q138.621-9.211 138.586-9.949L138.586-9.949L138.586-9.949Q138.586-10.898 138.727-11.496L138.727-11.496L138.727-12.234L138.727-12.234Q138.656-12.621 138.656-12.902L138.656-12.902L138.656-12.902Q138.656-13.219 138.727-13.395L138.727-13.395L138.727-13.430L138.727-13.430Q138.832-13.641 138.832-13.922L138.832-13.922L138.727-13.887L138.727-14.906L138.727-14.906Q138.727-15.152 138.762-15.539L138.762-15.539L138.727-15.574L138.727-16.418L138.727-16.418Q138.586-16.945 138.586-17.613L138.586-17.613L138.656-18.211L138.727-18.773L138.727-19.371L138.656-19.898L138.621-20.461L138.621-20.461Q138.621-21.094 138.727-21.586L138.727-21.586L138.727-26.789L138.762-26.789L138.797-27L138.727-27L138.727-29.637L138.727-29.637Q138.656-30.023 138.656-30.305L138.656-30.305L138.656-30.305Q138.656-30.621 138.727-30.797L138.727-30.797L138.727-31.887L138.727-31.887Q138.516-32.484 138.516-33.504L138.516-33.504L138.516-34.031L138.516-34.031Q138.551-34.453 138.621-35.191L138.621-35.191L138.691-35.754L138.727-36.246L138.727-37.652L138.727-37.652Q138.691-37.969 138.691-38.215L138.691-38.215L138.691-38.215Q138.691-38.953 138.938-39.234L138.938-39.234L138.938-39.234Q139.148-39.586 139.500-39.797L139.500-39.797L139.500-39.762L139.641-39.867L139.781-39.902L139.781-39.902Q140.098-40.043 140.660-40.043L140.660-40.043L141.574-39.973L142.770-39.973L143.121-40.008L143.473-40.043L144.246-40.113L144.527-40.113L144.527-40.113Q145.230-40.113 145.688-39.973L145.688-39.973L146.461-39.973L146.461-39.973Q146.461-39.902 146.496-39.867L146.496-39.867L146.777-39.867L146.742-39.973L147.305-39.973L147.305-39.973Q147.375-39.902 147.445-39.902L147.445-39.902L147.445-39.902Q147.516-39.902 147.586-39.973L147.586-39.973L147.656-39.973L147.656-39.973Q148.043-40.113 148.605-40.113L148.605-40.113L148.816-40.113L149.414-40.043L149.941-39.973L151.629-39.973L152.086-40.008L152.086-40.008Q152.332-40.008 152.543-39.973L152.543-39.973L154.125-39.973L154.125-39.973Q154.547-39.973 154.898-39.762L154.898-39.762L154.898-39.762Q155.285-39.551 155.461-39.199L155.461-39.199L155.461-39.199Q155.742-38.848 155.742-38.355L155.742-38.355L155.742-38.355Q155.742-38.145 155.672-37.898L155.672-37.898L155.672-36.492L155.672-36.492Q155.637-36.527 155.602-36.527L155.602-36.527L155.602-36.527Q155.566-36.527 155.531-36.457L155.531-36.457L155.531-36.387L155.672-36.281L155.672-35.473L155.672-35.473Q155.672-35.297 155.602-35.086L155.602-35.086L155.602-35.086Q155.496-34.242 154.793-34.137L154.793-34.137L154.793-34.137Q154.477-33.996 154.160-33.996L154.160-33.996L153.633-33.996L153.633-33.996Q153.422-33.926 153.141-33.926L153.141-33.926L153.141-33.926Q152.859-33.926 152.508-33.996L152.508-33.996L151.066-33.996L150.996-34.066L150.504-34.066L150.539-33.996L144.844-33.996L144.703-33.855L144.703-33.504L144.527-33.574L144.563-33.363L144.563-33.223L144.598-33.082L144.703-33.082L144.703-32.309L144.633-32.344L144.633-32.168L144.703-32.238L144.668-31.711L144.668-31.711Q144.773-31.219 144.773-30.902L144.773-30.902L144.773-30.902Q144.773-30.656 144.703-30.480L144.703-30.480L144.703-29.496L144.668-29.602L144.668-29.602Q144.809-29.074 144.809-28.441L144.809-28.441L144.809-28.441Q144.809-27.914 144.703-27.352L144.703-27.352L144.703-26.016L147.129-26.016L147.445-26.051L147.797-26.086L147.973-26.086L147.973-26.086Q148.254-26.086 148.465-26.016L148.465-26.016L148.535-26.016L148.535-25.980L148.887-25.910L148.816-26.016L149.625-26.016L149.625-26.016Q149.871-26.086 150.188-26.086L150.188-26.086L150.750-26.016L151.172-26.016L151.172-26.016Q151.488-26.016 151.805-25.875L151.805-25.875L151.910-25.805L151.910-25.805Q152.684-25.383 152.684-24.539L152.684-24.539L152.684-22.008L152.684-22.008Q152.754-21.797 152.754-21.621L152.754-21.621L152.754-21.621Q152.754-21.270 152.543-20.918L152.543-20.918L152.543-20.918Q152.191-20.180 151.418-20.074L151.418-20.074L151.418-20.074Q151.172-20.004 150.785-20.004L150.785-20.004L150.469-20.039L148.641-20.039L148.641-20.039Q148.184-19.969 147.621-19.969L147.621-19.969L147.621-19.969Q147.094-19.969 146.496-20.039L146.496-20.039L145.336-20.039L145.266-20.145L145.195-20.250L144.914-20.039L144.703-20.039L144.703-19.230L144.703-19.230Q144.738-19.090 144.738-18.879L144.738-18.879L144.703-18.492L144.703-17.719L144.703-17.719Q144.809-17.016 144.809-16.453L144.809-16.453L144.809-16.453Q144.809-15.891 144.703-15.504L144.703-15.504L144.703-14.836L144.668-14.766L144.668-14.414L144.703-10.582L144.703-10.582Q144.809-10.336 144.809-10.090L144.809-10.090L144.809-10.090Q144.809-9.809 144.703-9.527L144.703-9.527L144.703-8.402L144.773-8.016L144.809-7.559L144.809-7.348L144.809-7.348Q144.809-6.926 144.703-6.715L144.703-6.715L144.703-6.082L145.547-6.082L145.547-6.082Q145.863-6.117 146.285-6.117L146.285-6.117L146.707-6.117L147.270-6.047L147.832-6.012L147.691-6.082L149.379-6.082L149.379-6.082Q149.555-6.117 149.801-6.117L149.801-6.117L150.469-6.117L150.820-6.082L154.160-6.082L154.160-6.082Q155.391-6.082 155.637-4.887L155.637-4.887L155.637-4.887Q155.672-4.746 155.672-4.605L155.672-4.605Z"></path><path d="M179.016-3.234L179.016-1.688L179.016-1.688Q179.016-1.371 178.910-1.090L178.910-1.090L178.910-1.090Q178.770-0.457 178.102-0.246L178.102-0.246L178.102-0.246Q177.785-0.141 177.469-0.141L177.469-0.141L177.469-0.141Q177.223-0.141 176.941-0.211L176.941-0.211L176.941-0.176L176.063-0.176L176.063-0.176Q175.781-0.070 175.535-0.070L175.535-0.070L175.535-0.070Q175.254-0.070 175.008-0.176L175.008-0.176L173.848-0.176L173.848-0.176Q172.512 0 171.352 0L171.352 0L171.352 0Q170.191 0 169.172-0.176L169.172-0.176L168.680-0.176L168.750-0.246L168.293-0.246L168.258-0.211L168.328-0.176L167.449-0.176L167.520-0.246L167.379-0.246L167.414-0.176L166.570-0.176L166.500-0.246L166.500-0.246Q166.254-0.211 165.727-0.176L165.727-0.176L165.270-0.105L164.813-0.070L164.813-0.070Q164.496-0.035 164.215-0.035L164.215-0.035L164.215-0.035Q163.512-0.035 163.125-0.246L163.125-0.246L163.125-0.246Q162.422-0.457 162.176-1.125L162.176-1.125L162.176-1.125Q161.930-1.477 161.930-2.320L161.930-2.320L161.930-2.531L161.930-2.531Q161.930-2.848 162-3.340L162-3.340L162.035-3.691L162.070-4.008L162.070-5.906L162.176-5.801L162.176-5.836L162.176-5.836Q162.176-6.082 162.070-6.328L162.070-6.328L162.070-6.398L162.070-6.398Q161.824-7.242 161.824-8.895L161.824-8.895L161.824-8.895Q161.824-10.617 162.070-11.391L162.070-11.391L162.070-12.094L162.141-12.094L162.141-12.270L162.070-12.340L162.070-12.410L162.070-12.410Q162-12.691 162-12.938L162-12.938L162-12.938Q162-13.184 162.070-13.430L162.070-13.430L162.070-14.344L162.141-14.273L162.070-14.625L162.070-14.625Q162-15.117 162-15.645L162-15.645L162-15.645Q162-16.137 162.070-16.664L162.070-16.664L162.070-17.367L162.070-17.367Q162-17.789 162-18.105L162-18.105L162-18.105Q162-18.387 162.070-18.563L162.070-18.563L162.070-20.355L162.070-20.355Q162.035-20.848 162.035-21.199L162.035-21.199L162.035-21.199Q162.035-21.551 162.070-21.762L162.070-21.762L162.070-22.570L162.070-22.570Q162.035-22.887 162.035-23.168L162.035-23.168L162.035-23.168Q162.035-23.484 162.070-23.766L162.070-23.766L162.070-24.961L162.070-24.961Q162.035-26.297 162.035-27.316L162.035-27.316L162.035-27.316Q162.035-28.371 162.070-29.109L162.070-29.109L162.070-29.602L162.035-30.234L161.965-30.902L161.895-32.273L161.895-32.730L161.895-32.730Q161.895-34.031 162.070-34.910L162.070-34.910L162.070-36.633L161.965-37.688L161.965-37.898L161.965-37.898Q161.965-38.602 162.176-39.023L162.176-39.023L162.176-39.023Q162.387-39.691 163.020-39.938L163.020-39.938L163.020-39.938Q163.406-40.148 164.074-40.148L164.074-40.148L164.074-40.148Q164.637-40.113 165.164-39.973L165.164-39.973L165.129-40.043L165.656-40.043L165.656-40.043Q165.586-40.008 165.516-39.938L165.516-39.938L165.691-39.938L165.691-39.938Q165.832-39.938 166.008-39.973L166.008-39.973L165.938-40.043L166.254-40.043L166.254-40.043Q166.395-40.078 166.535-40.078L166.535-40.078L166.535-40.078Q166.852-40.078 167.133-39.902L167.133-39.902L167.133-39.902Q167.520-39.727 167.766-39.445L167.766-39.445L167.660-39.551L167.625-39.516L167.906-39.199L167.941-39.129L167.941-39.129Q168.117-38.777 168.152-38.180L168.152-38.180L168.152-38.180Q168.152-37.723 168.047-37.160L168.047-37.160L168.047-34.172L168.047-34.172Q168.188-33.469 168.188-32.906L168.188-32.906L168.188-32.906Q168.188-32.344 168.047-31.922L168.047-31.922L168.047-31.641L168.012-31.605L167.977-31.359L168.047-31.254L168.047-27.105L168.047-27.105Q168.117-26.684 168.117-26.367L168.117-26.367L168.117-26.367Q168.117-26.051 168.047-25.840L168.047-25.840L168.047-24.996L168.047-24.996Q168.047-25.066 167.977-25.066L167.977-25.066L167.977-24.645L168.047-24.715L168.047-24.012L167.977-24.082L167.977-23.484L168.047-23.520L168.047-21.340L168.012-21.340L168.012-21.199L168.047-21.199L168.047-20.883L168.047-20.883Q168.117-20.637 168.117-20.355L168.117-20.355L168.117-20.355Q168.117-20.074 168.047-19.723L168.047-19.723L168.047-18.949L168.012-18.844L167.977-18.809L168.047-18.703L168.047-16.875L168.012-16.910L168.012-16.770L168.047-16.770L168.047-15.820L168.047-15.820Q168.117-15.574 168.117-15.188L168.117-15.188L168.117-14.941L168.047-14.027L168.047-13.008L168.117-12.516L168.188-11.988L168.188-11.988Q168.258-11.285 168.293-10.828L168.293-10.828L168.293-10.336L168.293-10.336Q168.293-9.281 168.047-8.684L168.047-8.684L168.047-8.297L168.012-8.402L167.977-8.402L167.977-7.980L167.977-7.980Q168.047-8.016 168.047-8.086L168.047-8.086L168.047-7.629L168.047-7.629Q168.117-7.418 168.117-7.207L168.117-7.207L168.117-7.207Q168.117-6.996 168.012-6.750L168.012-6.750L168.047-6.785L168.047-6.152L169.699-6.152L169.699-6.152Q169.875-6.223 170.121-6.223L170.121-6.223L170.297-6.223L170.613-6.188L170.930-6.152L171.809-6.152L172.441-6.188L172.934-6.188L172.934-6.188Q173.391-6.188 173.742-6.152L173.742-6.152L175.887-6.152L175.887-6.152Q176.309-6.293 176.766-6.293L176.766-6.293L176.766-6.293Q177.188-6.293 177.609-6.188L177.609-6.188L177.609-6.188Q178.699-5.941 178.910-5.238L178.910-5.238L178.910-5.238Q179.016-4.957 179.016-4.676L179.016-4.676L179.016-4.289L179.086-3.762L179.086-3.621L179.086-3.621Q179.086-3.410 179.016-3.234L179.016-3.234Z"></path></g></g><g transform="translate(-52.53623188405797 37.13489409141583) scale(0.7927660101573145)" fill="#232323"><g id="line2"><path d="M21.305-37.723L21.305-36.809L21.305-36.809Q21.340-36.598 21.340-36.352L21.340-36.352L21.340-36.352Q21.340-36.141 21.305-35.895L21.305-35.895L21.305-35.438L21.305-35.438Q21.305-34.840 20.848-34.383L20.848-34.383L20.848-34.383Q20.426-33.961 19.793-33.961L19.793-33.961L19.195-33.961L19.195-33.961Q18.949-33.891 18.668-33.891L18.668-33.891L18.668-33.891Q18.387-33.891 18.070-33.961L18.070-33.961L17.086-33.961L17.086-33.961Q16.734-33.891 16.453-33.891L16.453-33.891L16.453-33.891Q16.207-33.891 15.996-33.961L15.996-33.961L15.363-33.961L15.328-33.926L15.328-31.605L15.258-31.605L15.258-31.605Q15.434-30.656 15.469-29.953L15.469-29.953L15.469-29.953Q15.504-29.707 15.504-29.496L15.504-29.496L15.504-29.496Q15.504-28.828 15.328-28.336L15.328-28.336L15.328-26.859L15.363-26.227L15.434-25.594L15.434-25.594Q15.469-25.383 15.469-25.172L15.469-25.172L15.469-25.172Q15.469-24.680 15.328-24.363L15.328-24.363L15.328-24.012L15.223-24.082L15.223-23.555L15.328-23.625L15.328-23.309L15.328-23.309Q15.293-23.273 15.293-23.238L15.293-23.238L15.328-23.203L15.328-19.230L15.328-19.230Q15.363-18.984 15.363-18.668L15.363-18.668L15.328-18.105L15.328-16.488L15.258-16.453L15.258-16.453Q15.328-16.207 15.328-15.926L15.328-15.926L15.328-15.926Q15.328-15.715 15.293-15.504L15.293-15.504L15.258-15.082L15.258-14.590L15.328-14.590L15.328-13.113L15.328-13.113Q15.363-12.902 15.363-12.691L15.363-12.691L15.363-12.691Q15.363-12.480 15.328-12.305L15.328-12.305L15.328-11.320L15.328-11.320Q15.504-10.652 15.504-9.738L15.504-9.738L15.504-9.457L15.504-9.457Q15.504-8.613 15.328-8.156L15.328-8.156L15.328-6.855L15.328-6.855Q15.363-6.539 15.363-6.188L15.363-6.188L15.363-6.188Q15.363-5.836 15.328-5.414L15.328-5.414L15.328-4.078L15.328-4.078Q15.434-3.902 15.434-3.621L15.434-3.621L15.434-3.621Q15.434-3.340 15.328-2.953L15.328-2.953L15.328-1.582L15.293-1.301L15.258-1.301L15.223-1.055L15.188-1.020L15.188-1.020Q15.012-0.422 14.414-0.141L14.414-0.141L14.414-0.141Q14.098 0 13.781 0L13.781 0L13.781 0Q13.535 0 13.289-0.070L13.289-0.070L10.828-0.070L10.828-0.070Q10.512-0.070 10.230-0.211L10.230-0.211L10.230-0.211Q9.598-0.352 9.352-0.984L9.352-0.984L9.352-0.984Q9.246-1.301 9.246-1.652L9.246-1.652L9.246-1.652Q9.246-1.898 9.316-2.180L9.316-2.180L9.316-3.023L9.316-3.023Q9.211-3.375 9.211-3.762L9.211-3.762L9.211-3.762Q9.211-3.973 9.246-4.184L9.246-4.184L9.316-4.781L9.422-5.379L9.316-5.344L9.316-6.891L9.352-6.891L9.387-6.961L9.387-6.961Q9.246-7.453 9.246-7.805L9.246-7.805L9.246-7.805Q9.246-8.051 9.316-8.191L9.316-8.191L9.316-10.090L9.352-10.090L9.352-10.090Q9.281-10.477 9.281-10.793L9.281-10.793L9.281-10.793Q9.281-11.004 9.316-11.180L9.316-11.180L9.316-11.672L9.387-11.637L9.352-12.270L9.281-12.902L9.281-12.902Q9.246-13.219 9.246-13.465L9.246-13.465L9.246-13.465Q9.246-13.887 9.316-14.203L9.316-14.203L9.316-17.859L9.316-17.859Q9.387-17.824 9.422-17.824L9.422-17.824L9.422-17.824Q9.422-18 9.387-18.176L9.387-18.176L9.316-18.422L9.316-18.422Q9.141-19.266 9.141-20.531L9.141-20.531L9.141-20.988L9.141-20.988Q9.176-21.586 9.211-22.324L9.211-22.324L9.211-22.324Q9.246-22.816 9.316-23.555L9.316-23.555L9.316-23.555Q9.316-25.488 9.352-25.488L9.352-25.488L9.281-26.297L9.281-27.422L9.281-27.422Q9.281-28.090 9.387-28.652L9.387-28.652L9.387-28.652Q9.387-28.688 9.352-28.688L9.352-28.688L9.316-28.652L9.316-31.465L9.387-31.500L9.316-31.500L9.316-32.133L9.387-32.133L9.387-32.414L9.316-32.449L9.316-33.961L7.559-33.961L7.559-33.961Q7.172-33.855 6.574-33.820L6.574-33.820L6.574-33.820Q6.258-33.785 5.906-33.785L5.906-33.785L5.906-33.785Q5.590-33.785 5.273-33.820L5.273-33.820L5.273-33.820Q3.691-33.996 3.516-34.805L3.516-34.805L3.516-34.805Q3.340-35.121 3.340-35.438L3.340-35.438L3.340-36.949L3.340-36.949Q3.199-37.301 3.199-37.793L3.199-37.793L3.199-38.004L3.199-38.004Q3.234-38.707 3.480-39.059L3.480-39.059L3.480-39.059Q3.762-39.656 4.395-39.867L4.395-39.867L4.395-39.867Q4.746-40.043 5.379-40.043L5.379-40.043L5.379-40.043Q5.941-40.043 6.398-39.938L6.398-39.938L6.609-39.938L6.574-39.902L7.031-39.902L7.031-39.938L7.242-39.938L7.242-39.938Q7.699-40.078 8.156-40.078L8.156-40.078L8.156-40.078Q8.648-40.078 9.176-39.938L9.176-39.938L9.457-39.938L9.563-39.832L9.668-39.832L9.703-39.938L10.617-39.938L10.582-39.902L11.109-39.938L11.320-39.938L11.320-39.938Q11.531-39.973 11.742-39.973L11.742-39.973L11.742-39.973Q11.953-39.973 12.164-39.938L12.164-39.938L12.762-39.938L12.832-39.867L12.832-39.938L13.465-39.938L13.465-39.938Q13.957-40.043 14.660-40.043L14.660-40.043L15.012-40.043L15.820-39.973L16.594-39.938L18.281-39.938L18.281-39.938Q18.492-40.043 18.773-40.043L18.773-40.043L18.773-40.043Q19.090-40.043 19.441-39.938L19.441-39.938L19.793-39.938L19.793-39.938Q20.777-39.938 21.164-39.023L21.164-39.023L21.164-39.023Q21.340-38.813 21.340-38.426L21.340-38.426L21.340-38.426Q21.340-38.145 21.234-37.723L21.234-37.723L21.305-37.723Z"></path><path d="M41.801-8.613L41.801-8.613Q41.625-7.945 41.098-7.066L41.098-7.066L41.098-7.066Q40.746-6.645 40.324-6.363L40.324-6.363L40.324-6.363Q39.621-5.941 38.602-5.695L38.602-5.695L38.602-5.695Q38.285-5.660 37.969-5.660L37.969-5.660L37.969-5.660Q36.738-5.660 35.684-6.434L35.684-6.434L35.684-6.434Q35.016-7.242 34.102-9.105L34.102-9.105L34.066-9.633L34.066-10.230L34.066-10.230Q34.172-10.617 34.172-11.145L34.172-11.145L34.172-11.145Q34.172-11.707 34.066-12.059L34.066-12.059L34.066-12.305L34.031-12.340L34.066-12.340L34.066-13.254L34.066-13.254Q34.207-13.816 34.207-14.730L34.207-14.730L34.207-15.047L34.207-15.047Q34.207-15.785 34.066-16.137L34.066-16.137L34.066-18.246L34.031-18.211L34.031-18.387L34.066-18.352L34.066-19.160L34.066-19.160Q34.207-19.898 34.207-20.637L34.207-20.637L34.207-20.918L34.207-20.918Q34.207-21.621 34.066-22.078L34.066-22.078L34.066-22.113L34.031-22.219L34.066-22.148L34.066-24.082L34.066-24.082Q34.172-24.328 34.172-24.574L34.172-24.574L34.172-24.574Q34.172-24.820 34.066-25.066L34.066-25.066L34.066-26.262L33.996-26.227L33.996-26.402L34.066-26.332L34.066-27.141L34.031-27.141L34.031-27.141Q34.066-27.387 34.066-27.598L34.066-27.598L34.066-29.039L34.066-29.039Q34.137-29.285 34.137-29.566L34.137-29.566L34.137-29.566Q34.137-29.848 34.066-30.129L34.066-30.129L34.066-30.551L34.066-30.551Q34.066-32.449 35.543-33.645L35.543-33.645L35.543-33.645Q36.070-33.855 36.492-34.242L36.492-34.242L36.492-34.242Q37.020-34.453 37.582-34.523L37.582-34.523L37.582-34.523Q37.934-34.453 38.250-34.453L38.250-34.453L38.250-34.453Q38.461-34.453 38.672-34.488L38.672-34.488L38.672-34.488Q40.887-34.137 41.730-32.098L41.730-32.098L41.836-31.570L41.871-31.008L41.871-31.008Q41.977-30.305 42.047-29.953L42.047-29.953L42.047-29.074L42.047-29.074Q42.012-28.863 42.012-28.617L42.012-28.617L42.012-28.617Q42.012-28.406 42.047-28.195L42.047-28.195L42.047-26.086L42.047-26.086Q42.012-25.840 42.012-25.559L42.012-25.559L42.012-25.559Q42.012-25.313 42.047-25.031L42.047-25.031L42.047-23.906L42.117-23.977L42.117-23.977Q42.188-23.730 42.188-23.625L42.188-23.625L42.188-23.625Q42.188-23.555 42.152-23.555L42.152-23.555L42.152-23.555Q42.117-23.555 42.047-23.625L42.047-23.625L42.047-23.238L42.047-23.238Q42.047-23.273 42.117-23.344L42.117-23.344L42.117-23.063L42.117-23.063Q42.047-23.133 42.047-23.168L42.047-23.168L42.047-21.059L42.047-21.059Q41.977-20.813 41.977-20.566L41.977-20.566L41.977-20.566Q41.977-20.320 42.047-20.074L42.047-20.074L42.047-19.020L42.047-19.020Q42.012-18.809 42.012-18.598L42.012-18.598L42.012-18.598Q42.012-18.422 42.047-18.211L42.047-18.211L42.047-15.117L42.047-15.117Q41.906-14.695 41.906-13.957L41.906-13.957L41.906-13.676L41.977-12.902L41.977-12.902Q42.047-12.410 42.047-12.199L42.047-12.199L42.047-9.527L42.047-9.527Q42.012-9.352 41.941-9.070L41.941-9.070L41.801-8.613L41.801-8.719L41.801-8.719Q41.836-8.719 41.836-8.684L41.836-8.684L41.801-8.613ZM48.094-15.609L48.129-15.996L48.129-16.383L48.129-16.383Q48.129-16.840 48.023-17.121L48.023-17.121L48.023-18.141L48.023-18.141Q48.094-18.316 48.094-18.563L48.094-18.563L48.094-18.738L48.059-19.020L48.023-19.336L48.023-19.828L48.023-19.828Q48.094-20.320 48.094-20.672L48.094-20.672L48.094-20.672Q48.094-21.023 48.023-21.199L48.023-21.199L48.023-21.797L47.988-21.797L47.988-22.148L48.023-22.148L48.023-22.395L48.094-23.730L48.094-24.117L48.094-24.117Q48.094-24.680 48.023-25.031L48.023-25.031L48.023-28.652L47.918-28.477L47.918-28.969L48.023-28.934L48.023-30.551L48.023-30.551Q48.023-32.941 46.934-35.051L46.934-35.051L46.934-35.051Q46.582-36.211 45.703-36.949L45.703-36.949L45.141-37.547L45.141-37.547Q44.895-37.969 44.438-38.215L44.438-38.215L44.438-38.215Q44.051-38.531 43.699-38.777L43.699-38.777L43.699-38.777Q43.559-38.813 43.523-38.883L43.523-38.883L43.523-38.883Q43.102-39.164 42.609-39.410L42.609-39.410L42.609-39.410Q42.152-39.797 41.555-39.902L41.555-39.902L41.555-39.902Q40.605-40.254 39.656-40.395L39.656-40.395L39.656-40.324L39.410-40.324L39.410-40.324Q39.375-40.395 39.375-40.430L39.375-40.430L39.375-40.430Q38.742-40.535 38.109-40.535L38.109-40.535L38.109-40.535Q37.793-40.535 37.477-40.500L37.477-40.500L37.477-40.500Q37.301-40.535 37.160-40.535L37.160-40.535L37.160-40.535Q36.809-40.535 36.457-40.395L36.457-40.395L36.457-40.395Q35.895-40.289 35.402-40.148L35.402-40.148L35.402-40.148Q34.980-40.148 34.629-39.902L34.629-39.902L34.629-39.902Q33.082-39.340 31.816-38.320L31.816-38.320L31.816-38.320Q31.219-38.039 30.656-37.371L30.656-37.371L30.656-37.371Q30.445-37.090 30.199-36.738L30.199-36.738L29.777-36.105L29.777-36.105Q29.250-35.297 28.863-34.383L28.863-34.383L28.863-34.348L28.723-33.996L28.547-33.539L28.547-33.539Q28.055-32.273 28.055-31.289L28.055-31.289L28.055-31.289Q28.055-31.078 28.090-30.867L28.090-30.867L28.090-29.918L28.090-29.918Q28.055-29.320 28.055-28.863L28.055-28.863L28.055-28.863Q28.055-28.406 28.090-28.055L28.090-28.055L28.090-25.980L28.160-25.840L28.160-25.453L28.090-25.418L28.090-25.102L28.090-25.102Q27.914-24.609 27.914-23.590L27.914-23.590L27.914-23.590Q27.914-22.500 28.090-22.078L28.090-22.078L28.090-20.918L28.090-20.918Q27.984-20.531 27.984-20.039L27.984-20.039L27.984-20.039Q27.984-19.512 28.090-19.160L28.090-19.160L28.090-18.738L28.125-18.738L28.090-18.703L28.090-17.965L28.090-17.965Q27.949-17.332 27.949-16.523L27.949-16.523L27.949-16.207L27.949-16.207Q27.949-15.434 28.090-15.117L28.090-15.117L28.090-14.660L28.195-14.590L28.195-14.590Q28.195-14.379 28.160-14.238L28.160-14.238L28.090-14.203L28.090-12.516L28.125-12.621L28.125-12.410L28.090-12.445L28.090-12.094L28.090-12.094Q27.949-11.250 27.949-10.512L27.949-10.512L27.949-10.512Q27.949-9.703 28.125-9.070L28.125-9.070L28.160-8.438L28.230-8.543L28.336-7.840L28.230-7.910L28.406-7.102L28.406-6.996L28.406-6.996Q28.406-6.469 28.758-6.047L28.758-6.047L28.758-6.047Q29.004-5.414 29.285-4.887L29.285-4.887L29.426-4.816L29.426-4.781L29.391-4.711L29.848-4.008L29.848-4.008Q29.988-3.762 30.199-3.516L30.199-3.516L30.199-3.516Q30.551-3.059 30.973-2.637L30.973-2.637L30.973-2.637Q31.324-2.109 31.887-1.828L31.887-1.828L31.887-1.828Q33.434-0.598 35.367-0.035L35.367-0.035L35.367-0.035Q35.824 0.211 36.316 0.211L36.316 0.211L36.316 0.211Q36.457 0.211 36.633 0.176L36.633 0.176L36.563 0.211L36.563 0.211Q36.984 0.281 37.582 0.316L37.582 0.316L37.582 0.316Q37.969 0.457 38.531 0.457L38.531 0.457L38.531 0.457Q38.813 0.457 39.129 0.422L39.129 0.422L39.129 0.422Q40.078 0.316 40.641 0L40.641 0L40.676-0.035L40.922-0.176L40.957-0.105L40.957-0.105Q42.188-0.492 43.313-1.160L43.313-1.160L43.313-1.160Q44.191-1.547 45.141-2.391L45.141-2.391L45.141-2.391Q46.125-3.340 46.371-4.184L46.371-4.184L46.371-4.184Q47.391-5.695 47.777-7.453L47.777-7.453L47.813-7.629L47.813-7.629Q47.918-8.156 47.953-8.613L47.953-8.613L47.848-8.473L47.848-8.473Q47.848-8.719 47.918-8.930L47.918-8.930L47.988-8.859L48.023-9.176L48.023-9.176Q48.305-10.020 48.305-11.426L48.305-11.426L48.305-11.426Q48.305-11.848 48.270-12.340L48.270-12.340L48.234-13.219L48.164-14.063L48.164-14.063Q48.094-15.082 48.094-15.609L48.094-15.609Z"></path><path d="M72.844-37.723L72.844-36.809L72.844-36.809Q72.879-36.598 72.879-36.352L72.879-36.352L72.879-36.352Q72.879-36.141 72.844-35.895L72.844-35.895L72.844-35.438L72.844-35.438Q72.844-34.840 72.387-34.383L72.387-34.383L72.387-34.383Q71.965-33.961 71.332-33.961L71.332-33.961L70.734-33.961L70.734-33.961Q70.488-33.891 70.207-33.891L70.207-33.891L70.207-33.891Q69.926-33.891 69.609-33.961L69.609-33.961L68.625-33.961L68.625-33.961Q68.273-33.891 67.992-33.891L67.992-33.891L67.992-33.891Q67.746-33.891 67.535-33.961L67.535-33.961L66.902-33.961L66.867-33.926L66.867-31.605L66.797-31.605L66.797-31.605Q66.973-30.656 67.008-29.953L67.008-29.953L67.008-29.953Q67.043-29.707 67.043-29.496L67.043-29.496L67.043-29.496Q67.043-28.828 66.867-28.336L66.867-28.336L66.867-26.859L66.902-26.227L66.973-25.594L66.973-25.594Q67.008-25.383 67.008-25.172L67.008-25.172L67.008-25.172Q67.008-24.680 66.867-24.363L66.867-24.363L66.867-24.012L66.762-24.082L66.762-23.555L66.867-23.625L66.867-23.309L66.867-23.309Q66.832-23.273 66.832-23.238L66.832-23.238L66.867-23.203L66.867-19.230L66.867-19.230Q66.902-18.984 66.902-18.668L66.902-18.668L66.867-18.105L66.867-16.488L66.797-16.453L66.797-16.453Q66.867-16.207 66.867-15.926L66.867-15.926L66.867-15.926Q66.867-15.715 66.832-15.504L66.832-15.504L66.797-15.082L66.797-14.590L66.867-14.590L66.867-13.113L66.867-13.113Q66.902-12.902 66.902-12.691L66.902-12.691L66.902-12.691Q66.902-12.480 66.867-12.305L66.867-12.305L66.867-11.320L66.867-11.320Q67.043-10.652 67.043-9.738L67.043-9.738L67.043-9.457L67.043-9.457Q67.043-8.613 66.867-8.156L66.867-8.156L66.867-6.855L66.867-6.855Q66.902-6.539 66.902-6.188L66.902-6.188L66.902-6.188Q66.902-5.836 66.867-5.414L66.867-5.414L66.867-4.078L66.867-4.078Q66.973-3.902 66.973-3.621L66.973-3.621L66.973-3.621Q66.973-3.340 66.867-2.953L66.867-2.953L66.867-1.582L66.832-1.301L66.797-1.301L66.762-1.055L66.727-1.020L66.727-1.020Q66.551-0.422 65.953-0.141L65.953-0.141L65.953-0.141Q65.637 0 65.320 0L65.320 0L65.320 0Q65.074 0 64.828-0.070L64.828-0.070L62.367-0.070L62.367-0.070Q62.051-0.070 61.770-0.211L61.770-0.211L61.770-0.211Q61.137-0.352 60.891-0.984L60.891-0.984L60.891-0.984Q60.785-1.301 60.785-1.652L60.785-1.652L60.785-1.652Q60.785-1.898 60.855-2.180L60.855-2.180L60.855-3.023L60.855-3.023Q60.750-3.375 60.750-3.762L60.750-3.762L60.750-3.762Q60.750-3.973 60.785-4.184L60.785-4.184L60.855-4.781L60.961-5.379L60.855-5.344L60.855-6.891L60.891-6.891L60.926-6.961L60.926-6.961Q60.785-7.453 60.785-7.805L60.785-7.805L60.785-7.805Q60.785-8.051 60.855-8.191L60.855-8.191L60.855-10.090L60.891-10.090L60.891-10.090Q60.820-10.477 60.820-10.793L60.820-10.793L60.820-10.793Q60.820-11.004 60.855-11.180L60.855-11.180L60.855-11.672L60.926-11.637L60.891-12.270L60.820-12.902L60.820-12.902Q60.785-13.219 60.785-13.465L60.785-13.465L60.785-13.465Q60.785-13.887 60.855-14.203L60.855-14.203L60.855-17.859L60.855-17.859Q60.926-17.824 60.961-17.824L60.961-17.824L60.961-17.824Q60.961-18 60.926-18.176L60.926-18.176L60.855-18.422L60.855-18.422Q60.680-19.266 60.680-20.531L60.680-20.531L60.680-20.988L60.680-20.988Q60.715-21.586 60.750-22.324L60.750-22.324L60.750-22.324Q60.785-22.816 60.855-23.555L60.855-23.555L60.855-23.555Q60.855-25.488 60.891-25.488L60.891-25.488L60.820-26.297L60.820-27.422L60.820-27.422Q60.820-28.090 60.926-28.652L60.926-28.652L60.926-28.652Q60.926-28.688 60.891-28.688L60.891-28.688L60.855-28.652L60.855-31.465L60.926-31.500L60.855-31.500L60.855-32.133L60.926-32.133L60.926-32.414L60.855-32.449L60.855-33.961L59.098-33.961L59.098-33.961Q58.711-33.855 58.113-33.820L58.113-33.820L58.113-33.820Q57.797-33.785 57.445-33.785L57.445-33.785L57.445-33.785Q57.129-33.785 56.813-33.820L56.813-33.820L56.813-33.820Q55.230-33.996 55.055-34.805L55.055-34.805L55.055-34.805Q54.879-35.121 54.879-35.438L54.879-35.438L54.879-36.949L54.879-36.949Q54.738-37.301 54.738-37.793L54.738-37.793L54.738-38.004L54.738-38.004Q54.773-38.707 55.020-39.059L55.020-39.059L55.020-39.059Q55.301-39.656 55.934-39.867L55.934-39.867L55.934-39.867Q56.285-40.043 56.918-40.043L56.918-40.043L56.918-40.043Q57.480-40.043 57.938-39.938L57.938-39.938L58.148-39.938L58.113-39.902L58.570-39.902L58.570-39.938L58.781-39.938L58.781-39.938Q59.238-40.078 59.695-40.078L59.695-40.078L59.695-40.078Q60.188-40.078 60.715-39.938L60.715-39.938L60.996-39.938L61.102-39.832L61.207-39.832L61.242-39.938L62.156-39.938L62.121-39.902L62.648-39.938L62.859-39.938L62.859-39.938Q63.070-39.973 63.281-39.973L63.281-39.973L63.281-39.973Q63.492-39.973 63.703-39.938L63.703-39.938L64.301-39.938L64.371-39.867L64.371-39.938L65.004-39.938L65.004-39.938Q65.496-40.043 66.199-40.043L66.199-40.043L66.551-40.043L67.359-39.973L68.133-39.938L69.820-39.938L69.820-39.938Q70.031-40.043 70.313-40.043L70.313-40.043L70.313-40.043Q70.629-40.043 70.980-39.938L70.980-39.938L71.332-39.938L71.332-39.938Q72.316-39.938 72.703-39.023L72.703-39.023L72.703-39.023Q72.879-38.813 72.879-38.426L72.879-38.426L72.879-38.426Q72.879-38.145 72.773-37.723L72.773-37.723L72.844-37.723Z"></path><path d="M96.715-4.605L96.750-4.219L96.750-3.586L96.750-3.586Q96.750-3.340 96.715-3.164L96.715-3.164L96.715-2.637L96.680-2.602L96.715-2.566L96.715-1.617L96.715-1.617Q96.715-1.020 96.328-0.598L96.328-0.598L96.328-0.598Q95.871-0.070 95.098-0.070L95.098-0.070L95.098-0.070Q94.852-0.070 94.605-0.105L94.605-0.105L93.270-0.105L91.582-0.070L89.895 0L89.121 0L89.121 0Q87.609 0 86.520-0.105L86.520-0.105L85.957-0.105L85.957-0.105Q85.395-0.070 84.902-0.070L84.902-0.070L84.902-0.070Q84.410-0.070 83.988-0.105L83.988-0.105L82.617-0.105L82.617-0.105Q82.441-0.070 82.266-0.070L82.266-0.070L82.266-0.070Q82.090-0.070 81.879-0.105L81.879-0.105L81.246-0.105L81.246-0.105Q80.086-0.105 79.699-1.688L79.699-1.688L79.699-1.688Q79.523-2.320 79.523-2.918L79.523-2.918L79.523-2.918Q79.523-3.586 79.770-4.184L79.770-4.184L79.770-4.184Q79.840-4.324 79.840-4.395L79.840-4.395L79.840-4.395Q79.840-4.500 79.770-4.570L79.770-4.570L79.770-8.402L79.770-8.402Q79.664-9.211 79.629-9.949L79.629-9.949L79.629-9.949Q79.629-10.898 79.770-11.496L79.770-11.496L79.770-12.234L79.770-12.234Q79.699-12.621 79.699-12.902L79.699-12.902L79.699-12.902Q79.699-13.219 79.770-13.395L79.770-13.395L79.770-13.430L79.770-13.430Q79.875-13.641 79.875-13.922L79.875-13.922L79.770-13.887L79.770-14.906L79.770-14.906Q79.770-15.152 79.805-15.539L79.805-15.539L79.770-15.574L79.770-16.418L79.770-16.418Q79.629-16.945 79.629-17.613L79.629-17.613L79.699-18.211L79.770-18.773L79.770-19.371L79.699-19.898L79.664-20.461L79.664-20.461Q79.664-21.094 79.770-21.586L79.770-21.586L79.770-26.789L79.805-26.789L79.840-27L79.770-27L79.770-29.637L79.770-29.637Q79.699-30.023 79.699-30.305L79.699-30.305L79.699-30.305Q79.699-30.621 79.770-30.797L79.770-30.797L79.770-31.887L79.770-31.887Q79.559-32.484 79.559-33.504L79.559-33.504L79.559-34.031L79.559-34.031Q79.594-34.453 79.664-35.191L79.664-35.191L79.734-35.754L79.770-36.246L79.770-37.652L79.770-37.652Q79.734-37.969 79.734-38.215L79.734-38.215L79.734-38.215Q79.734-38.953 79.980-39.234L79.980-39.234L79.980-39.234Q80.191-39.586 80.543-39.797L80.543-39.797L80.543-39.762L80.684-39.867L80.824-39.902L80.824-39.902Q81.141-40.043 81.703-40.043L81.703-40.043L82.617-39.973L83.813-39.973L84.164-40.008L84.516-40.043L85.289-40.113L85.570-40.113L85.570-40.113Q86.273-40.113 86.730-39.973L86.730-39.973L87.504-39.973L87.504-39.973Q87.504-39.902 87.539-39.867L87.539-39.867L87.820-39.867L87.785-39.973L88.348-39.973L88.348-39.973Q88.418-39.902 88.488-39.902L88.488-39.902L88.488-39.902Q88.559-39.902 88.629-39.973L88.629-39.973L88.699-39.973L88.699-39.973Q89.086-40.113 89.648-40.113L89.648-40.113L89.859-40.113L90.457-40.043L90.984-39.973L92.672-39.973L93.129-40.008L93.129-40.008Q93.375-40.008 93.586-39.973L93.586-39.973L95.168-39.973L95.168-39.973Q95.590-39.973 95.941-39.762L95.941-39.762L95.941-39.762Q96.328-39.551 96.504-39.199L96.504-39.199L96.504-39.199Q96.785-38.848 96.785-38.355L96.785-38.355L96.785-38.355Q96.785-38.145 96.715-37.898L96.715-37.898L96.715-36.492L96.715-36.492Q96.680-36.527 96.645-36.527L96.645-36.527L96.645-36.527Q96.609-36.527 96.574-36.457L96.574-36.457L96.574-36.387L96.715-36.281L96.715-35.473L96.715-35.473Q96.715-35.297 96.645-35.086L96.645-35.086L96.645-35.086Q96.539-34.242 95.836-34.137L95.836-34.137L95.836-34.137Q95.520-33.996 95.203-33.996L95.203-33.996L94.676-33.996L94.676-33.996Q94.465-33.926 94.184-33.926L94.184-33.926L94.184-33.926Q93.902-33.926 93.551-33.996L93.551-33.996L92.109-33.996L92.039-34.066L91.547-34.066L91.582-33.996L85.887-33.996L85.746-33.855L85.746-33.504L85.570-33.574L85.605-33.363L85.605-33.223L85.641-33.082L85.746-33.082L85.746-32.309L85.676-32.344L85.676-32.168L85.746-32.238L85.711-31.711L85.711-31.711Q85.816-31.219 85.816-30.902L85.816-30.902L85.816-30.902Q85.816-30.656 85.746-30.480L85.746-30.480L85.746-29.496L85.711-29.602L85.711-29.602Q85.852-29.074 85.852-28.441L85.852-28.441L85.852-28.441Q85.852-27.914 85.746-27.352L85.746-27.352L85.746-26.016L88.172-26.016L88.488-26.051L88.840-26.086L89.016-26.086L89.016-26.086Q89.297-26.086 89.508-26.016L89.508-26.016L89.578-26.016L89.578-25.980L89.930-25.910L89.859-26.016L90.668-26.016L90.668-26.016Q90.914-26.086 91.230-26.086L91.230-26.086L91.793-26.016L92.215-26.016L92.215-26.016Q92.531-26.016 92.848-25.875L92.848-25.875L92.953-25.805L92.953-25.805Q93.727-25.383 93.727-24.539L93.727-24.539L93.727-22.008L93.727-22.008Q93.797-21.797 93.797-21.621L93.797-21.621L93.797-21.621Q93.797-21.270 93.586-20.918L93.586-20.918L93.586-20.918Q93.234-20.180 92.461-20.074L92.461-20.074L92.461-20.074Q92.215-20.004 91.828-20.004L91.828-20.004L91.512-20.039L89.684-20.039L89.684-20.039Q89.227-19.969 88.664-19.969L88.664-19.969L88.664-19.969Q88.137-19.969 87.539-20.039L87.539-20.039L86.379-20.039L86.309-20.145L86.238-20.250L85.957-20.039L85.746-20.039L85.746-19.230L85.746-19.230Q85.781-19.090 85.781-18.879L85.781-18.879L85.746-18.492L85.746-17.719L85.746-17.719Q85.852-17.016 85.852-16.453L85.852-16.453L85.852-16.453Q85.852-15.891 85.746-15.504L85.746-15.504L85.746-14.836L85.711-14.766L85.711-14.414L85.746-10.582L85.746-10.582Q85.852-10.336 85.852-10.090L85.852-10.090L85.852-10.090Q85.852-9.809 85.746-9.527L85.746-9.527L85.746-8.402L85.816-8.016L85.852-7.559L85.852-7.348L85.852-7.348Q85.852-6.926 85.746-6.715L85.746-6.715L85.746-6.082L86.590-6.082L86.590-6.082Q86.906-6.117 87.328-6.117L87.328-6.117L87.750-6.117L88.313-6.047L88.875-6.012L88.734-6.082L90.422-6.082L90.422-6.082Q90.598-6.117 90.844-6.117L90.844-6.117L91.512-6.117L91.863-6.082L95.203-6.082L95.203-6.082Q96.434-6.082 96.680-4.887L96.680-4.887L96.680-4.887Q96.715-4.746 96.715-4.605L96.715-4.605Z"></path><path d="M129.164-7.734L129.164-6.820L129.164-6.820Q129.164-6.539 129.199-5.977L129.199-5.977L129.234-5.063L129.234-5.063Q129.234-3.973 129.094-3.340L129.094-3.340L129.094-2.391L129.059-2.391L129.094-2.215L129.094-1.723L129.094-1.723Q129.094-1.090 128.637-0.668L128.637-0.668L128.637-0.668Q128.215-0.211 127.582-0.211L127.582-0.211L124.594-0.211L124.594-0.211Q124.277-0.211 123.996-0.352L123.996-0.352L123.996-0.352Q123.398-0.492 123.258-1.055L123.258-1.055L123.258-1.055Q123.152-1.301 123.117-1.547L123.117-1.547L123.223-1.582L123.223-1.723L123.117-1.793L123.117-2.285L123.117-2.285Q122.941-2.813 122.941-3.340L122.941-3.340L122.941-3.340Q122.941-3.832 123.117-4.324L123.117-4.324L123.117-6.152L123.117-6.152Q123.012-6.750 123.012-7.348L123.012-7.348L123.012-7.348Q123.012-7.945 123.117-8.578L123.117-8.578L123.117-9.492L123.152-9.527L123.152-9.773L123.117-9.809L123.117-13.254L123.152-13.219L123.117-13.570L123.047-13.887L123.047-13.887Q123.012-13.992 123.012-14.098L123.012-14.098L123.012-14.098Q123.012-14.344 123.117-14.520L123.117-14.520L123.117-14.836L123.188-14.836L123.223-15.188L123.152-15.293L123.117-15.223L123.117-15.750L123.117-15.750Q123.082-15.926 123.082-16.102L123.082-16.102L123.082-16.102Q123.082-16.313 123.117-16.488L123.117-16.488L123.117-18.105L123.082-18.809L123.047-19.477L123.047-19.863L123.047-19.863Q123.047-20.461 123.117-20.848L123.117-20.848L123.117-22.254L122.906-21.691L122.906-21.551L122.906-21.551Q122.906-21.164 122.625-20.883L122.625-20.883L122.273-19.828L122.168-19.688L122.063-19.336L122.098-19.301L121.992-18.984L121.992-18.984Q121.887-18.105 121.465-16.980L121.465-16.980L121.465-16.980Q121.184-16.207 120.621-15.082L120.621-15.082L120.410-14.449L120.410-14.449Q120.305-14.027 120.129-13.641L120.129-13.641L119.531-11.918L119.461-11.848L119.461-11.777L119.496-11.742L119.426-11.602L119.426-11.602Q119.426-11.180 119.145-10.898L119.145-10.898L119.145-10.898Q118.688-10.195 117.879-10.195L117.879-10.195L117.035-10.195L117.105-10.266L116.859-10.301L116.930-10.195L116.262-10.195L115.980-10.230L115.980-10.195L114.363-10.195L114.363-10.195Q113.309-10.195 112.957-11.180L112.957-11.180L112.148-13.500L112.254-13.465L112.184-13.605L112.078-13.746L112.043-13.852L111.727-14.625L111.727-14.625Q111.586-15.082 111.480-15.434L111.480-15.434L111.199-16.277L111.234-16.383L111.234-16.383Q111.234-16.488 111.199-16.629L111.199-16.629L111.059-16.734L110.988-16.910L111.129-16.840L111.059-16.980L110.988-16.945L109.160-22.254L109.160-21.445L109.160-21.445Q109.336-20.883 109.336-20.039L109.336-20.039L109.336-20.039Q109.336-19.723 109.301-19.406L109.301-19.406L109.195-17.824L109.160-17.367L109.160-16.699L109.125-16.699L109.125-16.488L109.160-16.523L109.160-15.645L109.160-15.645Q109.266-15.047 109.301-14.555L109.301-14.555L109.301-14.555Q109.301-13.887 109.160-13.500L109.160-13.500L109.160-12.340L109.160-12.340Q109.230-11.848 109.230-11.215L109.230-11.215L109.230-10.758L109.195-9.949L109.160-9.211L109.160-8.789L109.230-6.961L109.230-6.434L109.230-6.434Q109.230-5.695 109.160-5.133L109.160-5.133L109.160-4.430L109.195-4.078L109.230-3.691L109.230-3.691Q109.301-3.199 109.301-2.813L109.301-2.813L109.301-2.566L109.301-2.566Q109.301-1.688 109.090-1.266L109.090-1.266L109.090-1.266Q108.844-0.492 108.070-0.281L108.070-0.281L108.070-0.281Q107.473 0 106.523 0L106.523 0L106.523 0Q106.031 0 105.434-0.070L105.434-0.070L105.434-0.070Q103.535-0.281 103.289-1.160L103.289-1.160L103.289-1.160Q103.184-1.441 103.184-1.723L103.184-1.723L103.184-3.234L103.254-3.164L103.254-3.375L103.184-3.340L103.184-4.219L103.254-4.254L103.219-4.395L103.184-4.395L103.184-7.594L103.184-7.594Q103.184-8.051 103.113-8.754L103.113-8.754L103.043-9.984L103.043-9.984Q103.008-10.441 103.008-10.828L103.008-10.828L103.008-10.828Q103.008-11.742 103.184-12.375L103.184-12.375L103.184-12.516L103.219-12.516L103.219-12.516Q103.254-12.691 103.289-12.902L103.289-12.902L103.184-12.938L103.184-13.746L103.184-13.746Q103.043-14.906 103.043-15.926L103.043-15.926L103.043-15.926Q103.043-16.945 103.184-17.789L103.184-17.789L103.184-18.457L103.184-18.457Q103.078-19.020 103.078-19.617L103.078-19.617L103.078-19.617Q103.078-20.215 103.184-20.848L103.184-20.848L103.184-21.516L103.184-21.516Q103.113-21.938 103.113-22.254L103.113-22.254L103.113-22.254Q103.113-22.570 103.184-22.816L103.184-22.816L103.184-23.695L103.219-23.730L103.184-24.328L103.184-27.738L103.184-27.738Q103.113-28.055 103.113-28.371L103.113-28.371L103.113-28.371Q103.113-28.652 103.184-28.934L103.184-28.934L103.184-29.813L103.184-29.813Q103.078-30.234 103.078-30.762L103.078-30.762L103.078-30.762Q103.078-31.184 103.184-31.746L103.184-31.746L103.184-32.977L103.184-32.977Q103.113-33.258 103.113-33.504L103.113-33.504L103.113-33.504Q103.113-33.750 103.184-33.996L103.184-33.996L103.184-35.016L103.184-35.016Q103.148-35.227 103.148-35.508L103.148-35.508L103.148-35.508Q103.148-35.789 103.184-36.176L103.184-36.176L103.184-38.602L103.184-38.602Q103.184-38.918 103.324-39.199L103.324-39.199L103.324-39.199Q103.359-39.902 104.063-39.938L104.063-39.938L104.063-39.938Q104.344-40.078 104.660-40.078L104.660-40.078L107.332-40.078L107.402-39.973L107.473-39.973L107.613-40.078L107.930-40.078L107.930-40.078Q108.070-40.113 108.246-40.113L108.246-40.113L108.246-40.113Q108.598-40.113 108.984-39.902L108.984-39.902L108.984-39.902Q109.512-39.586 109.688-39.094L109.688-39.094L109.828-38.602L109.828-38.602Q110.004-38.391 110.074-38.039L110.074-38.039L110.145-37.758L110.250-37.441L110.391-36.844L110.426-36.844L110.953-35.367L110.918-35.402L110.918-35.402Q110.953-35.227 111.059-35.051L111.059-35.051L111.094-34.980L111.094-34.980Q111.410-34.418 111.480-33.820L111.480-33.820L112.148-31.922L112.148-31.922Q112.289-31.605 112.359-31.254L112.359-31.254L112.746-30.129L112.746-30.129Q112.957-29.742 113.027-29.355L113.027-29.355L113.414-28.230L113.414-28.230Q113.660-27.844 113.836-27.246L113.836-27.246L113.836-27.246Q113.977-26.859 114.082-26.227L114.082-26.227L114.117-26.227L114.363-25.453L114.363-25.453Q114.539-25.102 114.645-24.715L114.645-24.715L114.820-24.117L114.785-24.012L114.785-24.012Q114.820-23.871 114.891-23.766L114.891-23.766L114.961-23.766L115.031-23.555L115.031-23.555Q115.277-23.203 115.453-22.570L115.453-22.570L115.734-21.551L115.980-20.813L115.980-20.813Q115.910-20.742 115.910-20.672L115.910-20.672L115.910-20.672Q115.910-20.566 116.156-20.391L116.156-20.391L116.297-20.813L116.332-20.777L116.332-20.953L116.332-20.953Q116.332-21.410 116.613-22.254L116.613-22.254L116.613-22.254Q116.930-23.203 117.281-23.695L117.281-23.695L117.773-25.137L117.844-25.066L117.914-25.137L117.914-25.137Q117.949-25.277 117.984-25.383L117.984-25.383L118.055-25.594L117.949-25.664L118.301-26.613L118.301-26.613Q118.371-27 118.547-27.352L118.547-27.352L118.828-28.160L118.828-28.160Q119.004-29.320 119.566-30.305L119.566-30.305L121.430-35.754L121.430-35.754Q121.430-36.070 121.605-36.422L121.605-36.422L121.887-37.020L122.590-39.094L122.590-39.094Q122.941-40.078 123.996-40.078L123.996-40.078L124.383-40.078L124.383-40.078Q124.559-40.113 124.805-40.113L124.805-40.113L125.297-40.113L125.719-40.078L127.195-40.078L127.195-40.078Q127.406-40.148 127.582-40.148L127.582-40.148L127.582-40.148Q127.863-40.148 128.145-39.973L128.145-39.973L128.145-39.973Q128.707-39.762 128.953-39.164L128.953-39.164L128.953-39.164Q129.340-38.707 129.340-37.582L129.340-37.582L129.340-37.582Q129.340-37.301 129.305-37.020L129.305-37.020L129.234-36.387L129.164-35.754L129.164-35.754Q129.094-35.016 129.094-34.734L129.094-34.734L129.094-33.609L129.129-33.082L129.129-32.660L129.129-32.660Q129.129-32.273 129.094-31.992L129.094-31.992L129.094-31.746L129.129-31.430L129.129-31.430Q129.094-30.973 128.988-30.902L128.988-30.902L128.988-30.656L129.094-30.656L129.094-30.305L129.023-30.270L129.094-30.199L129.094-25.734L129.094-25.734Q129.199-25.242 129.199-24.715L129.199-24.715L129.199-24.715Q129.199-24.117 129.094-23.766L129.094-23.766L129.094-22.465L129.094-22.465Q129.199-21.410 129.199-20.461L129.199-20.461L129.199-20.039L129.199-20.039Q129.199-19.160 129.094-18.492L129.094-18.492L129.094-15.434L129.094-15.434Q129.129-15.223 129.129-14.977L129.129-14.977L129.129-14.977Q129.129-14.730 129.094-14.484L129.094-14.484L129.094-13.570L129.129-13.078L129.129-12.902L129.129-12.902Q129.129-12.727 129.094-12.551L129.094-12.551L129.094-10.512L129.094-10.512Q129.164-9.738 129.199-8.684L129.199-8.684L129.164-7.734Z"></path></g></g><g transform="translate(-25 -82.8617106314948) scale(0.5)"><g fill="#232323"><path fill="#232323" d="M74.744 12.5V0h-12.5v12.5h-25V0h-12.5v12.5H0V25h100V12.5zM12.5 37.5h75V50h-75zM12.5 62.5h75V75h-75zM75 100H12.5V87.5h75z"></path></g></g></svg>