<svg>
<svg viewBox="0 0 50 50" xmlns="http://www.w3.org/2000/svg" xmlns:xlink="http://www.w3.org/1999/xlink" version="1.1"><g transform="translate(24.75 24.75) scale(1.4285714285714286)"><g fill="#232323"><g transform="translate(-17.325 -17.325) scale(0.3431372549019608)"><g fill="#232323"><polygon vector-effect="non-scaling-stroke" points="1 101 101 101 101 1 1 1"></polygon> </g></g><g transform="translate(-9.9 -9.8) scale(0.19999999999999998)"><g fill="#FFFFFF"><path fill="#FFFFFF" d="M74.744 12.5V0h-12.5v12.5h-25V0h-12.5v12.5H0V25h100V12.5zM12.5 37.5h75V50h-75zM12.5 62.5h75V75h-75zM75 100H12.5V87.5h75z"></path></g></g></g></g>
</svg>
<svg viewBox="0 0 50 50" xmlns="http://www.w3.org/2000/svg" xmlns:xlink="http://www.w3.org/1999/xlink" version="1.1"><g transform="translate(24.75 25) scale(1.4285714285714286)"><g fill="#232323"><g transform="translate(-17.325 -17.5) scale(0.35)"><g fill="#232323"><rect vector-effect="non-scaling-stroke" x="1" y="1" width="98" height="98" rx="10"></rect></g></g><g transform="translate(-9.9 -9.8) scale(0.19999999999999998)"><g fill="#FFFFFF"><path fill="#FFFFFF" d="M74.744 12.5V0h-12.5v12.5h-25V0h-12.5v12.5H0V25h100V12.5zM12.5 37.5h75V50h-75zM12.5 62.5h75V75h-75zM75 100H12.5V87.5h75z"></path></g></g></g></g></svg>
<svg viewBox="0 0 50 50" xmlns="http://www.w3.org/2000/svg" xmlns:xlink="http://www.w3.org/1999/xlink" version="1.1"><g transform="translate(24.75 25) scale(1.4285714285714286)"><g fill="#232323"><g transform="translate(-17.325 -17.5) scale(0.3431372549019608)"><g fill="#232323"><circle vector-effect="non-scaling-stroke" cx="51" cy="51" r="50"></circle></g></g><g transform="translate(-9.9 -9.8) scale(0.19999999999999998)"><g fill="#FFFFFF"><path fill="#FFFFFF" d="M74.744 12.5V0h-12.5v12.5h-25V0h-12.5v12.5H0V25h100V12.5zM12.5 37.5h75V50h-75zM12.5 62.5h75V75h-75zM75 100H12.5V87.5h75z"></path></g></g></g></g></svg>
<svg viewBox="0 0 43.137254901960794 50" xmlns="http://www.w3.org/2000/svg" xmlns:xlink="http://www.w3.org/1999/xlink" version="1.1" class="jsx-2263963463 artboard-inner" style="width: 55px; height: 63.75px; max-height: 100%;"><g transform="translate(21.35294117647059 25.000000000000004) scale(1.2324929971988798)"><g fill="#232323"><g transform="translate(-17.325 -20.284090909090907) scale(0.3977272727272727)"><g fill="#232323"><polygon vector-effect="non-scaling-stroke" transform="translate(44.000000, 51.300001) rotate(90.000000) translate(-44.000000, -51.300001) " points="69 8 94 51.3000014 69 94.6000027 19 94.6000027 -6 51.3000014 19 8"></polygon></g></g><g transform="translate(-9.9 -9.8) scale(0.19999999999999998)"><g fill="#FFFFFF"><path fill="#FFFFFF" d="M74.744 12.5V0h-12.5v12.5h-25V0h-12.5v12.5H0V25h100V12.5zM12.5 37.5h75V50h-75zM12.5 62.5h75V75h-75zM75 100H12.5V87.5h75z"></path></g></g></g></g></svg>
<svg viewBox="0 0 50 50" xmlns="http://www.w3.org/2000/svg" xmlns:xlink="http://www.w3.org/1999/xlink" version="1.1" class="jsx-2263963463 artboard-inner" style="width: 41px; height: 41px; max-height: 100%;"><g transform="translate(0 0) scale(0.5)"><g fill="#232323"><path fill="#232323" d="M74.744 12.5V0h-12.5v12.5h-25V0h-12.5v12.5H0V25h100V12.5zM12.5 37.5h75V50h-75zM12.5 62.5h75V75h-75zM75 100H12.5V87.5h75z"></path></g></g></svg>
</svg>