<?xml version="1.0" encoding="UTF-8"?>
<svg width="191px" height="30px" viewBox="0 0 191 30" version="1.1" xmlns="http://www.w3.org/2000/svg" xmlns:xlink="http://www.w3.org/1999/xlink">
    <!-- Generator: Sketch 46 (44423) - http://www.bohemiancoding.com/sketch -->
    <title>totem</title>
    <desc>Created with Sketch.</desc>
    <defs></defs>
    <g id="Page-1" stroke="none" stroke-width="1" fill="none" fill-rule="evenodd">
        <g id="Mask" transform="translate(1.000000, 6.000000)" stroke="#F1E9E9" fill="#405263">
            <path d="M2.00015806,0 C2.10974349,0.509346081 2.2151141,1.02165181 2.31642794,1.5354851 L9.20998387,3.94650127 L9.65517468,8.68227416 L9.09829102,8.66260681 C8.97711482,8.65831054 8.85614936,8.65286861 8.73507853,8.64804725 C8.7301788,9.38003532 8.50800487,10.0497753 8.11813362,10.5629403 C7.72404755,11.0819291 7.1251737,11.4548449 6.43151898,11.4548449 C5.73791695,11.4548449 5.1390431,11.0819291 4.74490434,10.562988 C4.35081827,10.0440947 4.12743258,9.36509387 4.12743258,8.62346306 C4.12743258,8.47667401 4.13654714,8.33251045 4.15361718,8.19144975 C3.85936975,8.1359802 3.56543844,8.07473455 3.27187593,8.00513506 C3.44468372,9.96628455 3.48841253,11.897933 3.34826962,13.7498619 C3.95467747,13.6150547 4.59796503,13.4325589 5.23366591,13.2122082 C7.18381244,12.5361193 9.05371925,11.4533173 9.60470216,10.5882882 L10.0158583,9.94270283 L10.449353,10.5761632 C11.3142349,11.8397425 13.1248708,12.8900361 14.9901939,13.5030654 C15.6938062,13.7343476 16.4077974,13.899181 17.0719484,14 C16.8517238,12.1043924 16.7853403,10.0942178 16.8667918,8.07019961 C16.5786032,8.14385668 16.2904146,8.21087842 16.002226,8.2726969 C16.0135006,8.3878368 16.0198228,8.5046952 16.0198228,8.62346306 C16.0198228,9.36509387 15.7967006,10.0440947 15.4025618,10.562988 C15.0084757,11.0819768 14.4094438,11.4548926 13.7158945,11.4548926 C13.0222925,11.4548926 12.4233659,11.0819768 12.0292272,10.5630358 C11.6593763,10.0761257 11.4401001,9.44839367 11.4143897,8.76003655 C11.3129705,8.75989334 11.2115513,8.75936824 11.110132,8.75774521 L10.5835951,8.74934363 L11.0364253,3.92874338 L17.6389476,1.59825831 C17.7486911,1.05750176 17.8684975,0.523619228 18,4.77362775e-05 C13.5907669,2.03967567 6.40580855,2.14073337 2,4.77362775e-05 L2.00015806,0 Z" id="Path"></path>
            <path d="M21,1 L12.3007239,3.93758951 L12,7 C14.8629326,6.97280338 17.726785,6.35348226 20.608829,5.10022295 L21,1 Z" id="Path"></path>
            <path d="M0,1 L0.39216605,5.14545287 C3.18028745,6.55801513 6.00072038,6.8764988 9,7 L8.70197489,3.93875669 L0,1 Z" id="Path"></path>
            <path d="M9.99204547,11 C9.03045128,11.9824185 7.33516574,12.7804966 5.58581928,13.3649717 C4.56263538,13.7068095 3.52235484,13.9620922 2.59328085,14.0910118 C2.00875372,14.1721344 1.4786012,14.2022187 1,14.1648301 L1.05834815,14.4421169 L3.6379009,18.2637796 L5.1606516,13.7213723 L7.65702165,18.8038359 L9.9750534,12.8732603 L12.6161959,19 L15,13.7730953 C14.8619721,13.7333786 14.7239443,13.692201 14.5856027,13.648467 C12.8307142,13.0926153 11.0946477,12.2091691 9.99199319,11 L9.99204547,11 Z" id="Path"></path>
            <path d="M15,14.0000491 L16.5707035,19 L19,14.5169233 C17.8568612,14.634194 16.4436703,14.432037 15,14 L15,14.0000491 Z" id="Path"></path>
            <path d="M10.6148548,16 L8.31104192,21.6341525 L5.83700473,16.8191692 L4.4167804,20.8686927 L2,17.4457053 L2.62641276,20.2934631 C7.44387342,22.3180469 12.1951209,22.5284348 17,20.992665 L15.5808419,16.8974862 L13.2357658,21.8123237 L10.6148548,16.000089 L10.6148548,16 Z" id="Path"></path>
            <path d="M19,17 L17,21 C17.4914311,20.8034624 17.9835487,20.5835321 18.4764508,20.3397198 L19,17 L19,17 Z" id="Path"></path>
        </g>
        <path d="M35.394,22.951 L42.414,22.951 L42.414,26.461 L31,26.461 L31,7.52 L35.394,7.52 L35.394,22.951 Z M53.802,26.461 C53.4206648,26.461 53.132501,26.4090005 52.9375,26.305 C52.742499,26.2009995 52.5800007,25.984335 52.45,25.655 L52.164,24.914 C51.8259983,25.2000014 51.5010016,25.4513323 51.189,25.668 C50.8769984,25.8846678 50.5541683,26.0688326 50.2205,26.2205 C49.8868317,26.3721674 49.5315019,26.484833 49.1545,26.5585 C48.7774981,26.632167 48.3593356,26.669 47.9,26.669 C47.2846636,26.669 46.7256692,26.5888341 46.223,26.4285 C45.7203308,26.2681659 45.2935018,26.0320016 44.9425,25.72 C44.5914982,25.4079984 44.3206676,25.020169 44.13,24.5565 C43.9393324,24.092831 43.844,23.5576697 43.844,22.951 C43.844,22.474331 43.9653321,21.9846692 44.208,21.482 C44.4506679,20.9793308 44.870997,20.5221687 45.469,20.1105 C46.067003,19.6988313 46.8729949,19.3543347 47.887,19.077 C48.9010051,18.7996653 50.1793256,18.6436668 51.722,18.609 L51.722,18.037 C51.722,17.2483294 51.5595016,16.6785018 51.2345,16.3275 C50.9094984,15.9764982 50.448003,15.801 49.85,15.801 C49.3733309,15.801 48.9833348,15.8529995 48.68,15.957 C48.3766652,16.0610005 48.1058345,16.1779994 47.8675,16.308 C47.6291655,16.4380006 47.3973345,16.5549995 47.172,16.659 C46.9466655,16.7630005 46.6780016,16.815 46.366,16.815 C46.0886653,16.815 45.852501,16.747834 45.6575,16.6135 C45.462499,16.479166 45.3086672,16.3123343 45.196,16.113 L44.468,14.852 C45.2826707,14.1326631 46.1861617,13.5975018 47.1785,13.2465 C48.1708383,12.8954982 49.234661,12.72 50.37,12.72 C51.1846707,12.72 51.9191634,12.8521653 52.5735,13.1165 C53.2278366,13.3808347 53.7824977,13.7491643 54.2375,14.2215 C54.6925023,14.6938357 55.0413321,15.2549968 55.284,15.905 C55.5266679,16.5550033 55.648,17.2656628 55.648,18.037 L55.648,26.461 L53.802,26.461 Z M49.174,24.004 C49.6940026,24.004 50.1489981,23.9130009 50.539,23.731 C50.9290019,23.5489991 51.3233313,23.2543354 51.722,22.847 L51.722,20.975 C50.915996,21.0096668 50.2530026,21.0789995 49.733,21.183 C49.2129974,21.2870005 48.8013349,21.4169992 48.498,21.573 C48.1946651,21.7290008 47.9845006,21.9066657 47.8675,22.106 C47.7504994,22.3053343 47.692,22.5219988 47.692,22.756 C47.692,23.2153356 47.8176654,23.5381657 48.069,23.7245 C48.3203346,23.9108343 48.6886642,24.004 49.174,24.004 Z M58.508,26.461 L58.508,12.98 L60.9,12.98 C61.0993343,12.98 61.266166,12.9973332 61.4005,13.032 C61.534834,13.0666668 61.6474995,13.120833 61.7385,13.1945 C61.8295005,13.268167 61.8988331,13.3656661 61.9465,13.487 C61.9941669,13.6083339 62.0353332,13.7556658 62.07,13.929 L62.291,15.19 C62.7850025,14.4273295 63.3396636,13.8250022 63.955,13.383 C64.5703364,12.9409978 65.2419964,12.72 65.97,12.72 C66.5853364,12.72 67.0793315,12.8673319 67.452,13.162 L66.932,16.126 C66.8973332,16.3080009 66.8280005,16.435833 66.724,16.5095 C66.6199995,16.583167 66.4813342,16.62 66.308,16.62 C66.1606659,16.62 65.9873343,16.6005002 65.788,16.5615 C65.5886657,16.5224998 65.3373349,16.503 65.034,16.503 C63.9766614,16.503 63.1446697,17.0663277 62.538,18.193 L62.538,26.461 L58.508,26.461 Z M78.294,26.461 C77.9126648,26.461 77.624501,26.4090005 77.4295,26.305 C77.234499,26.2009995 77.0720007,25.984335 76.942,25.655 L76.656,24.914 C76.3179983,25.2000014 75.9930016,25.4513323 75.681,25.668 C75.3689984,25.8846678 75.0461683,26.0688326 74.7125,26.2205 C74.3788317,26.3721674 74.0235019,26.484833 73.6465,26.5585 C73.2694981,26.632167 72.8513356,26.669 72.392,26.669 C71.7766636,26.669 71.2176692,26.5888341 70.715,26.4285 C70.2123308,26.2681659 69.7855018,26.0320016 69.4345,25.72 C69.0834982,25.4079984 68.8126676,25.020169 68.622,24.5565 C68.4313324,24.092831 68.336,23.5576697 68.336,22.951 C68.336,22.474331 68.4573321,21.9846692 68.7,21.482 C68.9426679,20.9793308 69.362997,20.5221687 69.961,20.1105 C70.559003,19.6988313 71.3649949,19.3543347 72.379,19.077 C73.3930051,18.7996653 74.6713256,18.6436668 76.214,18.609 L76.214,18.037 C76.214,17.2483294 76.0515016,16.6785018 75.7265,16.3275 C75.4014984,15.9764982 74.940003,15.801 74.342,15.801 C73.865331,15.801 73.4753348,15.8529995 73.172,15.957 C72.8686651,16.0610005 72.5978345,16.1779994 72.3595,16.308 C72.1211655,16.4380006 71.8893345,16.5549995 71.664,16.659 C71.4386655,16.7630005 71.1700016,16.815 70.858,16.815 C70.5806653,16.815 70.344501,16.747834 70.1495,16.6135 C69.954499,16.479166 69.8006672,16.3123343 69.688,16.113 L68.96,14.852 C69.7746707,14.1326631 70.6781617,13.5975018 71.6705,13.2465 C72.6628383,12.8954982 73.726661,12.72 74.862,12.72 C75.6766707,12.72 76.4111634,12.8521653 77.0655,13.1165 C77.7198366,13.3808347 78.2744977,13.7491643 78.7295,14.2215 C79.1845023,14.6938357 79.5333321,15.2549968 79.776,15.905 C80.0186679,16.5550033 80.14,17.2656628 80.14,18.037 L80.14,26.461 L78.294,26.461 Z M73.666,24.004 C74.1860026,24.004 74.6409981,23.9130009 75.031,23.731 C75.421002,23.5489991 75.8153313,23.2543354 76.214,22.847 L76.214,20.975 C75.407996,21.0096668 74.7450026,21.0789995 74.225,21.183 C73.7049974,21.2870005 73.2933349,21.4169992 72.99,21.573 C72.6866652,21.7290008 72.4765006,21.9066657 72.3595,22.106 C72.2424994,22.3053343 72.184,22.5219988 72.184,22.756 C72.184,23.2153356 72.3096654,23.5381657 72.561,23.7245 C72.8123346,23.9108343 73.1806642,24.004 73.666,24.004 Z M89.942,26.461 L86.276,26.461 L81.05,12.98 L84.404,12.98 C84.6900014,12.98 84.930499,13.047166 85.1255,13.1815 C85.320501,13.315834 85.4526663,13.4826657 85.522,13.682 L87.394,19.727 C87.5413341,20.2210025 87.682166,20.7019977 87.8165,21.17 C87.950834,21.6380023 88.0656662,22.1059977 88.161,22.574 C88.2563338,22.1059977 88.3733326,21.6380023 88.512,21.17 C88.6506674,20.7019977 88.7979992,20.2210025 88.954,19.727 L90.904,13.682 C90.9733337,13.4826657 91.1033324,13.315834 91.294,13.1815 C91.4846676,13.047166 91.7099987,12.98 91.97,12.98 L95.168,12.98 L89.942,26.461 Z M102.11,12.772 C103.002671,12.772 103.819496,12.9106653 104.5605,13.188 C105.301504,13.4653347 105.938497,13.8683307 106.4715,14.397 C107.004503,14.9256693 107.420499,15.5734962 107.7195,16.3405 C108.018501,17.1075038 108.168,17.9763285 108.168,18.947 C108.168,19.2503349 108.155,19.4973324 108.129,19.688 C108.103,19.8786676 108.055334,20.0303328 107.986,20.143 C107.916666,20.2556672 107.823501,20.3336664 107.7065,20.377 C107.589499,20.4203336 107.440001,20.442 107.258,20.442 L99.484,20.442 C99.6140007,21.5686723 99.9563306,22.3854975 100.511,22.8925 C101.065669,23.3995025 101.780662,23.653 102.656,23.653 C103.124002,23.653 103.526998,23.5966672 103.865,23.484 C104.203002,23.3713328 104.504165,23.2456674 104.7685,23.107 C105.032835,22.9683326 105.275499,22.8426672 105.4965,22.73 C105.717501,22.6173328 105.949332,22.561 106.192,22.561 C106.512668,22.561 106.755333,22.6779988 106.92,22.912 L108.09,24.355 C107.673998,24.8316691 107.225502,25.2194985 106.7445,25.5185 C106.263498,25.8175015 105.769503,26.0514992 105.2625,26.2205 C104.755497,26.3895008 104.248503,26.5064997 103.7415,26.5715 C103.234497,26.6365003 102.751336,26.669 102.292,26.669 C101.347329,26.669 100.461171,26.5151682 99.6335,26.2075 C98.8058292,25.8998318 98.0821698,25.4426697 97.4625,24.836 C96.8428302,24.2293303 96.3531685,23.4753378 95.9935,22.574 C95.6338315,21.6726622 95.454,20.624006 95.454,19.428 C95.454,18.5266622 95.6078318,17.673004 95.9155,16.867 C96.2231682,16.060996 96.6651638,15.3546697 97.2415,14.748 C97.8178362,14.1413303 98.5154959,13.6603351 99.3345,13.305 C100.153504,12.9496649 101.078662,12.772 102.11,12.772 Z M102.188,15.554 C101.416663,15.554 100.814335,15.7728311 100.381,16.2105 C99.9476645,16.6481689 99.6616674,17.2786625 99.523,18.102 L104.554,18.102 C104.554,17.7813317 104.512834,17.4693348 104.4305,17.166 C104.348166,16.8626651 104.213834,16.5918345 104.0275,16.3535 C103.841166,16.1151655 103.596335,15.9223341 103.293,15.775 C102.989665,15.6276659 102.621336,15.554 102.188,15.554 Z M114.642,7 L114.642,26.461 L110.612,26.461 L110.612,7 L114.642,7 Z M136.092,8.066 L136.092,9.197 L129.631,9.197 L129.631,26.461 L128.305,26.461 L128.305,9.197 L121.805,9.197 L121.805,8.066 L136.092,8.066 Z M140.785,13.318 C141.712338,13.318 142.542163,13.4761651 143.2745,13.7925 C144.006837,14.1088349 144.624331,14.5573304 145.127,15.138 C145.629669,15.7186696 146.013165,16.4184959 146.2775,17.2375 C146.541835,18.0565041 146.674,18.9729949 146.674,19.987 C146.674,21.0010051 146.541835,21.9153293 146.2775,22.73 C146.013165,23.5446707 145.629669,24.2423304 145.127,24.823 C144.624331,25.4036696 144.006837,25.8499984 143.2745,26.162 C142.542163,26.4740016 141.712338,26.63 140.785,26.63 C139.857662,26.63 139.027837,26.4740016 138.2955,26.162 C137.563163,25.8499984 136.943503,25.4036696 136.4365,24.823 C135.929497,24.2423304 135.543835,23.5446707 135.2795,22.73 C135.015165,21.9153293 134.883,21.0010051 134.883,19.987 C134.883,18.9729949 135.015165,18.0565041 135.2795,17.2375 C135.543835,16.4184959 135.929497,15.7186696 136.4365,15.138 C136.943503,14.5573304 137.563163,14.1088349 138.2955,13.7925 C139.027837,13.4761651 139.857662,13.318 140.785,13.318 Z M140.785,25.655 C141.556337,25.655 142.230164,25.5228347 142.8065,25.2585 C143.382836,24.9941653 143.863831,24.6150025 144.2495,24.121 C144.635169,23.6269975 144.923332,23.0311702 145.114,22.3335 C145.304668,21.6358298 145.4,20.853671 145.4,19.987 C145.4,19.1289957 145.304668,18.3490035 145.114,17.647 C144.923332,16.9449965 144.635169,16.3448358 144.2495,15.8465 C143.863831,15.3481642 143.382836,14.964668 142.8065,14.696 C142.230164,14.427332 141.556337,14.293 140.785,14.293 C140.013663,14.293 139.339836,14.427332 138.7635,14.696 C138.187164,14.964668 137.706169,15.3481642 137.3205,15.8465 C136.934831,16.3448358 136.644501,16.9449965 136.4495,17.647 C136.254499,18.3490035 136.157,19.1289957 136.157,19.987 C136.157,20.853671 136.254499,21.6358298 136.4495,22.3335 C136.644501,23.0311702 136.934831,23.6269975 137.3205,24.121 C137.706169,24.6150025 138.187164,24.9941653 138.7635,25.2585 C139.339836,25.5228347 140.013663,25.655 140.785,25.655 Z M153.46,26.669 C152.584662,26.669 151.902169,26.4263358 151.4125,25.941 C150.922831,25.4556642 150.678,24.7060051 150.678,23.692 L150.678,14.852 L148.819,14.852 C148.723666,14.852 148.645667,14.8260003 148.585,14.774 C148.524333,14.7219997 148.494,14.6483338 148.494,14.553 L148.494,14.072 L150.704,13.916 L151.016,9.288 C151.024667,9.20999961 151.057166,9.14066697 151.1135,9.08 C151.169834,9.01933303 151.245666,8.989 151.341,8.989 L151.926,8.989 L151.926,13.929 L155.995,13.929 L155.995,14.852 L151.926,14.852 L151.926,23.627 C151.926,23.9823351 151.9715,24.2878321 152.0625,24.5435 C152.1535,24.7991679 152.279166,25.0093325 152.4395,25.174 C152.599834,25.3386675 152.788332,25.4599996 153.005,25.538 C153.221668,25.6160004 153.455665,25.655 153.707,25.655 C154.019002,25.655 154.287666,25.6095005 154.513,25.5185 C154.738334,25.4274995 154.933333,25.3278339 155.098,25.2195 C155.262667,25.1111661 155.396999,25.0115005 155.501,24.9205 C155.605001,24.8294995 155.687333,24.784 155.748,24.784 C155.817334,24.784 155.886666,24.8273329 155.956,24.914 L156.294,25.46 C155.964665,25.8240018 155.546503,26.1164989 155.0395,26.3375 C154.532497,26.5585011 154.006003,26.669 153.46,26.669 Z M164.068,13.318 C164.796004,13.318 165.46983,13.4436654 166.0895,13.695 C166.70917,13.9463346 167.246498,14.3124976 167.7015,14.7935 C168.156502,15.2745024 168.511832,15.8659965 168.7675,16.568 C169.023168,17.2700035 169.151,18.0759955 169.151,18.986 C169.151,19.1766676 169.122834,19.3066663 169.0665,19.376 C169.010166,19.4453337 168.921334,19.48 168.8,19.48 L159.453,19.48 L159.453,19.727 C159.453,20.6976715 159.565666,21.5513297 159.791,22.288 C160.016334,23.0246704 160.336998,23.6421642 160.753,24.1405 C161.169002,24.6388358 161.671664,25.0136654 162.261,25.265 C162.850336,25.5163346 163.508996,25.642 164.237,25.642 C164.887003,25.642 165.450331,25.5705007 165.927,25.4275 C166.403669,25.2844993 166.804498,25.1241676 167.1295,24.9465 C167.454502,24.7688324 167.712332,24.6085007 167.903,24.4655 C168.093668,24.3224993 168.232333,24.251 168.319,24.251 C168.431667,24.251 168.518333,24.2943329 168.579,24.381 L168.917,24.797 C168.708999,25.0570013 168.433835,25.2996655 168.0915,25.525 C167.749165,25.7503345 167.367835,25.9431659 166.9475,26.1035 C166.527165,26.2638341 166.076502,26.3916662 165.5955,26.487 C165.114498,26.5823338 164.631336,26.63 164.146,26.63 C163.261996,26.63 162.456004,26.4761682 161.728,26.1685 C160.999996,25.8608318 160.376003,25.4123363 159.856,24.823 C159.335997,24.2336637 158.935168,23.5121709 158.6535,22.6585 C158.371832,21.8048291 158.231,20.8276722 158.231,19.727 C158.231,18.799662 158.363165,17.9438373 158.6275,17.1595 C158.891835,16.3751627 159.273164,15.6991695 159.7715,15.1315 C160.269836,14.5638305 160.88083,14.1196683 161.6045,13.799 C162.32817,13.4783317 163.149329,13.318 164.068,13.318 Z M164.081,14.241 C163.413663,14.241 162.815669,14.344999 162.287,14.553 C161.758331,14.761001 161.301169,15.0599981 160.9155,15.45 C160.529831,15.840002 160.217835,16.3079973 159.9795,16.854 C159.741165,17.4000027 159.583,18.0109966 159.505,18.687 L168.033,18.687 C168.033,17.9936632 167.937668,17.3718361 167.747,16.8215 C167.556332,16.2711639 167.287668,15.8053352 166.941,15.424 C166.594332,15.0426648 166.178336,14.7501677 165.693,14.5465 C165.207664,14.3428323 164.670336,14.241 164.081,14.241 Z M172.479,26.461 L172.479,13.526 L173.155,13.526 C173.380334,13.526 173.510333,13.6343323 173.545,13.851 L173.662,15.723 C173.913335,15.3676649 174.181999,15.0426681 174.468,14.748 C174.754001,14.4533319 175.059498,14.1998344 175.3845,13.9875 C175.709502,13.7751656 176.056165,13.6105006 176.4245,13.4935 C176.792835,13.3764994 177.180665,13.318 177.588,13.318 C178.532671,13.318 179.286664,13.5931639 179.85,14.1435 C180.413336,14.6938361 180.794666,15.4586618 180.994,16.438 C181.150001,15.900664 181.368832,15.437002 181.6505,15.047 C181.932168,14.6569981 182.254998,14.3341679 182.619,14.0785 C182.983002,13.8228321 183.379498,13.6321673 183.8085,13.5065 C184.237502,13.3808327 184.677331,13.318 185.128,13.318 C185.769337,13.318 186.345664,13.4241656 186.857,13.6365 C187.368336,13.8488344 187.803832,14.1629979 188.1635,14.579 C188.523168,14.9950021 188.798332,15.5063303 188.989,16.113 C189.179668,16.7196697 189.275,17.4129961 189.275,18.193 L189.275,26.461 L188.027,26.461 L188.027,18.193 C188.027,16.9276603 187.754003,15.9635033 187.208,15.3005 C186.661997,14.6374967 185.882005,14.306 184.868,14.306 C184.417331,14.306 183.986169,14.3883325 183.5745,14.553 C183.162831,14.7176675 182.798835,14.9624984 182.4825,15.2875 C182.166165,15.6125016 181.914834,16.0176642 181.7285,16.503 C181.542166,16.9883358 181.449,17.5516635 181.449,18.193 L181.449,26.461 L180.214,26.461 L180.214,18.193 C180.214,16.9363271 179.962669,15.9743367 179.46,15.307 C178.957331,14.6396633 178.225005,14.306 177.263,14.306 C176.560996,14.306 175.911003,14.5161646 175.313,14.9365 C174.714997,15.3568354 174.182002,15.9396629 173.714,16.685 L173.714,26.461 L172.479,26.461 Z" id="Laravel-Totem" fill="#405263"></path>
    </g>
</svg>