<svg width="930" height="10" viewBox="0 0 930 10" xmlns="http://www.w3.org/2000/svg" xmlns:xlink="http://www.w3.org/1999/xlink">

    <!--

    http://vanseodesign.com/web-design/svg-pattern-attributes/
    http://vanseodesign.com/web-design/svg-pattern-element/

    -->

    <defs>

        <clipPath id="mask">
            <path d="M930 1.74c-15-.005-27.21 1.502-40.49 2.56-3.773-2.326-28.43-.24-36.533-.993l.77-.19c-21.115 1.79-43.483-1.486-63.835.115.726-.17 1.165-.726 4.9-.84-14.724.295-34.122.76-35.204-.563-35.41.353-84.84-.272-107.53 1.887l1.556-.375c-12.93 1.458-16.738.218-31.193.958-.787-.177-1.81-.268-1.647-.343-14.086 1.44-41.107.226-52.496.84l-.737-.9-28.05.21 10.482.193c-3.634 2.47-21.217-1.548-41.56.05-19.034-.31-38.608 5.135-58.382 3.926-9.428 1.157 8.303-1.88-5.79-.99-.46-1.287 6.584-.808 2.955-1.835-13.84.612-22.696-1.315-39.767-.445L406.75 4c-22.266 1.834-42.014-1.32-56.837.428-22.962.83-15.396-2.98-39.31-1.015l-9.296-1.357c-10.232-.22-7.33 1.664-18.672 1.006.69-.856-14.337-.68-7.694-1.494-25.68-1.336-52.127 1.9-85.946-.36-7.345 1.662-24.37.672-29.852 1.922-.906-.725-34.115-.117-14.997-1.69 1.643-.13 4.545-.105 4.345.177l2.29-.986c-19.29-1.862-35.05 1.026-54.136.738 5.656.327 13.186.24 8.154.92L87.066 2.15l3.69-.832L64.34.835l3.64 1.028c-12.93-.528-17.476-2.277-32.054-.816-6.597.813 12.244 1.385-1.402 1.707l-12.215-.49c-1.17-.04-2.358-.085-3.564-.13-1.96-.042-3.948-.085-5.962-.13L.16 1.742C.107 4.465.054 7 0 10h930V1.74z"></path>
        </clipPath>

    </defs>

    <rect width="930" height="10" fill="#000" clip-path="url(#mask)"></rect>

</svg>
