<svg width="1244" height="14" viewBox="0 0 1244 14" xmlns="http://www.w3.org/2000/svg" xmlns:xlink="http://www.w3.org/1999/xlink">

    <!--

    http://vanseodesign.com/web-design/svg-pattern-attributes/
    http://vanseodesign.com/web-design/svg-pattern-element/

    -->

    <defs>

        <clipPath id="mask">
            <path d="M342.03 5.372l-2.627.112c-.51-.14-1.09-.26-1.53-.42l4.157.308zM105.913 5.6c-2.688-1.166-9.626-1.916-13.903-.77 5.547.16 11.077 1.07 13.903.77zm300.76.87s-.115.072-.208.176c.13-.057.207-.115.21-.176h-.002zm-54.057-3.245l1.9 2.334c4.252-.42 5.142-3.043-1.9-2.336zm66.443 1.657c.5.055 1.02.12 1.69.17-.634-.09-1.19-.142-1.69-.17zm0 0c-1.047-.114-1.987-.186-3.893.004.26.105.52.18.855.253.746-.21 1.675-.334 3.036-.26v.002zm768.03.257c-.163-.31-.51-.583-.88-.745 0 .26.345.508.88.743zM646.56 6.425c1.85-.206 4.29-.182 2.547-.47-.827.225-1.68.366-2.547.47zm381.803-2.067c-6.062.26-.5.7-.768 1.77l.768-1.77zm-101.54-2.08l-10.49.687 7.74-.416 2.75-.27zm284.092 4.18c-.647 1.44 6.895 3.54 3.435 5.54h-7.59c-.015-1 .68-1.916 3.438-2.19-1.383.136-4.926.713-7.708.276l6.438-1.77c-6.938-.758-3.63 1.416-9.177 1.255.114-1.46-4.102-1.052-3.31-2.212 1.42-.14 4.84.6 6.967.024-6.256-.26-13.817-1.13-16.314-2.238.544.832 0 1.967-4.58 2.157-11.838.106-4.053-1.76-10.957-2.51-2.868 1.014-10.42-.04-10.62 2.147-3.465-.01-4.103-1.03-5.443-1.622-6.126.964-28.62.275-21.715 2.6l1.572.254c-.295.043-.64.195-1.003.195-20.082 2.115-41.72-1.34-61.646-.403l.037-.782c-11.9.835-26.477.47-34.97 2.04-3.52 0-8.306-1.346-6.802-2.217-9.09.55-10.11 1.365-23.244.16 9.144-1.277-3.153-1.136 9.368-.94-11.812-.63-14.49-1.803-27.177.196 4.32-1.874-8.89-2.36-14.507-1.8l8.277 1.34c-6.317.272-11.84.105-17.447-.054l3.033-2.464c-24.178-2.998-43.603 5.1-62.008.082-6.395 1.723 13.134 1.213 7.414 3.23-11.12-.334-22.71-3.87-26.19-3.876-15.235-1.365-14.216 3.6-30.158 2.667 2.04.876 3.966 3.223-7.95 4.05-11.13-.325-13.68-3.686-6.653-4.39 2.67-.075 3.96.206 3.848.502 3.595-.318 8.312-.696 3.905-1.648l-1.443.877c-5.522-.896-20.834-.803-17.24-2.244-7.17.715-4.723 1.26.017 1.686-12.69-.915-20.605.12-34.373-.683 2.333.484 4.485 1.517 2.16 1.508-21.55-1.088-9.487 1.667-24.09 2.05-8.297-1.338 2.972-3.196-11.727-2.074-8.98-.906-1.9-2.33 1.667-3.047-13.394 1.69-25.024-1.116-32.672-1.427L740.824 0c-4.217.42-7.674.41-11.19.405l4.026 1.757c-4.14-.305-7.646-.312-7.57-1.045-4.268 1.152 3.268 2.923-5.2 4.497-5.522-.893-16.816.958-18.726-1.374 15.626.712 1.595-1.752 9.324-2.528-2.07.038-4.394-.04-6.99-.232-.623-.26.587-.483 1.72-.616-16.618-2.084-7.64 2.637-24.86 2.583 2.185-1.314-3.993-2.493-6.802-2.212 6.938.027 3.318 2.192-3.05 3.2-11.044-1.023-12.003.76-17.784.64l6.603.484c-2.238 1.31-7.76 1.14-15.46 1.553-.207-.323.416-.512 1.278-.634-8.018.8-17.686-2.74-28.264-1.357-5.523-.89-.538-2.47-5.385-3.073-13.36 1.706-14.465-1.8-28.507-.39 4.043 1.765 4.75 1.333-5.134 3.056l23.08-1.244-14.81 2.568c6.963.025 14.697-1.11 18.87-.81-7.06 1.44-6.333 1-2.998 2.467-9.53-2.65-18.898 1.544-29.916-.246l.337-4.37c-16.566-1.95-29.433 2.242-50.94 1.143l6.913.76c-2.886 1.738-13.28.24-20.246.946.648-1.463-3.707-1.993-6.68-2.904.363 1.084-15.744-.1-17.697 2.82l-9.6-1.925c-17.37-.787-19.823 4.166-36.517 3.668 5.03-1.59-2.558-2.625 8.624-3.76-5.573-.016-10.585-.283-10.672.73-3.257-.916-15.458 1.97-20.583.58-2.35.643-3.12 2.174-9.376 2.053-.404-.175-.32-.394-.183-.544-1.38.6-9.12.944-4.12 2.423-17.17-4.56-47.99.332-62.94-3.585-12.167.49-26.822.96-37.865 1.066.708-.437.035-.727 2.126-.575-15.233-1.36-9.366 4.197-26.7 2.68-8.857-2.364 9.203-1.28 3.68-2.174-2.4-4.81-20.92.66-32.584-2.15l2.825-.284c-8.916-1.634-21.757 1.822-36.326 1.48 0 0 .708-.425.086-.728-9.963 2.453-28.827 3.265-42.842 3.946 4.364-1.882 6.37-.996 3.707-2.91-6.283.272 1.84 3.072-10.7 3.607-4.078-1.03-13.124-1.93-14.326-3.97l11.83-.11c-6.06-2.64-15.313.09-21.543-.37l.795-1.153c-18.13.374-18.38 3.283-37.865 3.074l2.013.876c-10.646 2.88-8.926-1.62-19.546.52l-3.215-2.92C75.92 6.09 58.336 8.21 45.74 8.76 52.875 6.595 67.616 5.487 76.74 4.2c-6.965-.02-23.67.214-27.3 1.657 2.81-.282 6.34-.998 9.113-.548C50.01 7.606 38.76 8.735 24.883 8.684c.805-1.853-2.8-2.646-8.346-3.03-1.387-.095-2.927-.165-4.52-.22l-2.51-.07c-.95-.02-2.042-.038-3.022-.057-2.207-.03-3.99-.06-6.99-.093V20h1245V5.37c-10 .533-20.588 2.25-33.584 1.092h.005zM500.37 2.116c.422.367 1.243.646 2.1.91-.07-.213-.546-.473-2.1-.91zm632.888 5.752c-.812-.16-1.832-.25-2.973-.29l2.973.29zM844.37 6.23c2.177-.057 3.085-.3 3.197-.523-2.022.16-3.68.31-3.197.524zm285.915 1.346l-7.64-.77c-.534.8 3.916.593 7.64.77zm3.854.515c-.153-.062-.197-.114-.364-.176l-.52-.047c.34.066.636.137.882.225zM653.72 5.078l-3.793-.278c1.502.19 2.72.254 3.792.277zM706.217.864l.397.04c2.35-.237 1.02-.196-.397-.04zm89.34 2.667l2.877.168c-1.097-.226-2.204-.35-2.877-.166zm-84.07-1.817c1.243-.022 2.394-.086 3.457-.19-1.474.038-2.594.104-3.456.19z"></path>
        </clipPath>

    </defs>

    <rect width="1244" height="14" fill="#000" clip-path="url(#mask)"></rect>

</svg>
