<svg width="600" height="6" viewBox="0 0 600 6" xmlns="http://www.w3.org/2000/svg" xmlns:xlink="http://www.w3.org/1999/xlink">

    <!--

    http://vanseodesign.com/web-design/svg-pattern-attributes/
    http://vanseodesign.com/web-design/svg-pattern-element/

    -->

    <defs>

        <clipPath id="mask">
            <path d="M299.031,4.075L299.031,4.075h0.002C299.032,4.075,299.032,4.075,299.031,4.075z M299.033,4.075
            	c2.007-0.055,3.81-0.146,4.898-0.312L299.033,4.075z M595.499,6v3H-4.5V6C2.7,5.854,8.369,4.98,12.519,4.74
            	c1.691,0.422,9.645,0.66,12.01,0.66h9.429c-5.054,0,16.171-0.289,2.258-0.708C42.606,4.71,50.975,5.045,54.7,4.824
            	C55.476,4.896,56.408,5.4,56.815,5.4H76.07c-2.404,0-10.396-0.73-3.6-1.018c9.055,0.254-3.238,0.553,6.447,0.682l6.534-1.281
            	c23.756,0.66,20.547-0.768,41.294-0.006c-9.629,0.641-11.678,0.275-24.158,0.459c3.525,0.321,6.218,0.588,0.33,0.996
            	c0.415-0.342-4.198-0.152-9.012-0.223l2.618,0.392h56.216c0.758,0,1.3-0.144,1.53-0.23c1.391,0.131,1.694,0.23,1.475,0.23h5.191
            	c2.498,0,4.099-0.226,4.338-0.444l-8.125-0.275c11.407-0.89,21.091,0.356,23.928-0.508l-0.457,0.194
            	c15.388,0.298,21.147-0.349,36.279-0.276c4.938,1.217,14.843,0.709,26.187,1.116c-5.039-0.343,7.353-0.902,6.112-1.376
            	c-9.458,0.077-11.75,0.854-21.722,0.488c3.065-0.105,8.309-0.396,2.563-0.553c23.916-0.679,30.879,0.601,49.363,0.812l-1.376-0.539
            	l7.965,0.784c-3.266-0.796,6.277-0.561,13.039-0.747l-2.55,0.165c8.854,0.06,17.996-0.241,19.287-0.522
            	c11.289,0.098-3.411,0.47,3.81,0.586l9.857-0.444c6.848,0.479-4.614,0.165,2.234,0.643c7.423-0.479,14.07-0.208,26.365-0.612
            	c-0.43,0.369-2.35,0.826,2.438,0.898c-7.455,0.026-7.154,0.607-6.004,0.607h20.817c0.329,0-0.612-0.329-5.068-0.457
            	c5.244-0.287,16.449-0.271,17.496-0.773c-8.669,0.07-12.767-0.115-13.801-0.497c5.675,0.063,26.625,0.024,18.285,0.937
            	c8.771-0.377,20.575-0.914,27.655-1.305c2.232,0.261,9.341,0.309,12.695,0.474c-6.834,0.33-28.342,0.213-20.39,0.996
            	c16.521-0.18,29.044,0.446,44.017,0.312l-3.854-0.558c10.862,0.455,17.354-0.873,31.866-0.639c-0.372,0.348-1.176,1.053,6.706,1.031
            	c2.177-0.178,0.76-0.672,8.97-0.474c-4.126-0.235-5.245-0.39-6.19-0.56c10.705,0.416,24.304,1.515,36.688,1.515h6.688
            	c3.816,0,8.874-0.557,2.376-0.999c11.82-0.025,10.158,0.471,20.475,0.488l1.978-0.375c7.25,0.11,8.796,0.066,13.897,0.341V4.855
            	C573.847,4.104,586.861,5.984,595.499,6z M215.439,5.119c-6.693,0.024-9.76,0.281-11.275,0.281h10.459h0.002L215.439,5.119z
            	 M318.045,4.523C305.146,4.236,302.956,5.4,299.612,5.4h13.79C309.854,5.4,307.963,4.977,318.045,4.523z M481.09,3.19
            	c3.195,0.195,7.594,0.4,12.58,0.609C492.294,3.548,491.12,3.353,481.09,3.19z M373.912,3.671c-0.059-0.029-0.315-0.055-0.345-0.088
            	c-1.632,0.051-1.087,0.072,0.345,0.09V3.671z M585.287,3.548c-6.391-0.037-8.539,0.128-3.496,0.404
            	C584.884,3.866,583.108,3.708,585.287,3.548L585.287,3.548z M419.076,3.056c-0.229,0.1,0.114,0.18,0.773,0.246
            	c2.007-0.128,3.725-0.24,4.729-0.302C422.974,3.046,421.482,3.097,419.076,3.056z"></path>
        </clipPath>

    </defs>

    <rect width="600" height="6" fill="#000" clip-path="url(#mask)"></rect>

</svg>
